<?xml version='1.0' encoding='UTF-8' standalone='no'?>
<!-- Created with Fritzing (http://www.fritzing.org/) -->
<svg xmlns="http://www.w3.org/2000/svg" width="1.9685in" x="0in" version="1.2" y="0in"  height="1.9685in" viewBox="0 0 141.732 141.732" baseProfile="tiny" xmlns:svg="http://www.w3.org/2000/svg">
 <g partID="97750">
  <g  id="board">
   <rect width="141.156" x="0.288" y="0.288" fill="none"  rx="28.3465" ry="28.3465" height="141.156" stroke="black" fill-opacity="0.5" id="boardoutline" stroke-width="0.5"/>
  </g>
 </g>
 <g partID="120890">
  <g transform="translate(110.16,51.1196)">
   <g  id="groundplane">
    <polygon fill="black" points="13.824,0,13.824,0.144,13.68,0.144,13.68,0.288,13.392,0.288,13.392,0.432,13.104,0.432,13.104,0.576,12.816,0.576,12.816,0.72,12.528,0.72,12.528,1.008,12.384,1.008,12.384,1.296,12.24,1.296,12.24,1.584,12.096,1.584,12.096,1.872,11.952,1.872,11.952,2.16,11.808,2.16,11.808,2.448,11.664,2.448,11.664,2.736,11.52,2.736,11.52,3.024,11.376,3.024,11.376,3.312,11.232,3.312,11.232,3.6,11.088,3.6,11.088,3.888,10.944,3.888,10.944,4.176,10.8,4.176,10.8,4.464,10.656,4.464,10.656,4.752,10.512,4.752,10.512,5.04,10.368,5.04,10.368,5.328,10.224,5.328,10.224,5.616,10.08,5.616,10.08,5.76,9.936,5.76,9.936,5.904,9.792,5.904,9.792,6.048,9.648,6.048,9.648,6.192,9.36,6.192,9.36,6.336,9.216,6.336,9.216,6.48,8.784,6.48,8.784,6.624,0,6.624,0,35.712,5.904,35.712,5.904,35.856,6.624,35.856,6.624,36,7.056,36,7.056,36.144,7.488,36.144,7.488,36.288,7.776,36.288,7.776,36.432,8.064,36.432,8.064,36.576,8.352,36.576,8.352,36.72,8.496,36.72,8.496,36.864,8.784,36.864,8.784,37.008,8.928,37.008,8.928,37.152,9.216,37.152,9.216,37.296,9.36,37.296,9.36,37.44,9.504,37.44,9.504,37.584,9.648,37.584,9.648,37.728,9.792,37.728,9.792,37.872,9.936,37.872,9.936,38.016,10.08,38.016,10.08,38.16,10.224,38.16,10.224,38.304,10.368,38.304,10.368,38.448,10.512,38.448,10.512,38.736,10.656,38.736,10.656,38.88,10.8,38.88,10.8,39.024,10.944,39.024,10.944,39.312,11.088,39.312,11.088,39.6,11.232,39.6,11.232,39.744,11.376,39.744,11.376,40.176,11.52,40.176,11.52,40.464,11.664,40.464,11.664,40.896,11.808,40.896,11.808,41.472,11.952,41.472,11.952,44.784,11.808,44.784,11.808,45.216,11.664,45.216,11.664,45.648,11.52,45.648,11.52,46.08,11.376,46.08,11.376,46.368,11.232,46.368,11.232,46.656,11.088,46.656,11.088,46.8,10.944,46.8,10.944,47.088,10.8,47.088,10.8,47.232,10.656,47.232,10.656,47.52,10.512,47.52,10.512,47.664,10.368,47.664,10.368,47.808,10.224,47.808,10.224,47.952,10.08,47.952,10.08,48.096,9.936,48.096,9.936,48.24,9.792,48.24,9.792,48.384,9.648,48.384,9.648,48.528,9.504,48.528,9.504,48.672,9.36,48.672,9.36,48.816,9.216,48.816,9.216,48.96,9.072,48.96,9.072,49.104,8.784,49.104,8.784,49.248,8.64,49.248,8.64,49.392,8.352,49.392,8.352,49.536,8.064,49.536,8.064,49.68,7.776,49.68,7.776,49.824,7.488,49.824,7.488,49.968,7.2,49.968,7.2,50.112,6.768,50.112,6.768,50.256,6.192,50.256,6.192,50.4,4.464,50.4,4.464,50.544,4.32,50.544,4.32,50.832,4.176,50.832,4.176,50.976,4.032,50.976,4.032,51.264,3.888,51.264,3.888,51.552,3.744,51.552,3.744,51.84,3.6,51.84,3.6,52.128,3.456,52.128,3.456,52.416,3.312,52.416,3.312,52.56,3.168,52.56,3.168,52.848,3.024,52.848,3.024,54.288,18.72,54.288,18.72,49.68,18.432,49.68,18.432,49.536,18.288,49.536,18.288,49.392,18,49.392,18,49.248,17.856,49.248,17.856,49.104,17.568,49.104,17.568,48.96,17.424,48.96,17.424,48.816,17.28,48.816,17.28,48.672,17.136,48.672,17.136,48.528,16.848,48.528,16.848,48.384,16.704,48.384,16.704,48.24,16.56,48.24,16.56,48.096,16.416,48.096,16.416,47.808,16.272,47.808,16.272,47.664,16.128,47.664,16.128,47.52,15.984,47.52,15.984,47.376,15.84,47.376,15.84,47.088,15.696,47.088,15.696,46.944,15.552,46.944,15.552,46.656,15.408,46.656,15.408,46.368,15.264,46.368,15.264,46.08,15.12,46.08,15.12,45.792,14.976,45.792,14.976,45.36,14.832,45.36,14.832,44.928,14.688,44.928,14.688,43.92,14.544,43.92,14.544,42.192,14.688,42.192,14.688,41.328,14.832,41.328,14.832,40.752,14.976,40.752,14.976,40.32,15.12,40.32,15.12,38.448,14.976,38.448,14.976,38.16,14.832,38.16,14.832,38.016,14.688,38.016,14.688,37.728,14.544,37.728,14.544,37.584,14.4,37.584,14.4,37.296,14.256,37.296,14.256,37.008,14.112,37.008,14.112,36.864,13.968,36.864,13.968,36.72,11.808,36.72,11.808,36.576,11.232,36.576,11.232,36.432,10.8,36.432,10.8,36.288,10.368,36.288,10.368,36.144,10.08,36.144,10.08,36,9.792,36,9.792,35.856,9.648,35.856,9.648,35.712,9.36,35.712,9.36,35.568,9.216,35.568,9.216,35.424,8.928,35.424,8.928,35.28,8.784,35.28,8.784,35.136,8.64,35.136,8.64,34.992,8.496,34.992,8.496,34.848,8.208,34.848,8.208,34.704,8.064,34.704,8.064,34.56,7.92,34.56,7.92,34.416,7.776,34.416,7.776,34.128,7.632,34.128,7.632,33.984,7.488,33.984,7.488,33.84,7.344,33.84,7.344,33.696,7.2,33.696,7.2,33.408,7.056,33.408,7.056,33.264,6.912,33.264,6.912,32.976,6.768,32.976,6.768,32.688,6.624,32.688,6.624,32.4,6.48,32.4,6.48,32.112,6.336,32.112,6.336,31.68,6.192,31.68,6.192,31.248,6.048,31.248,6.048,30.24,5.904,30.24,5.904,28.512,6.048,28.512,6.048,27.648,6.192,27.648,6.192,27.072,6.336,27.072,6.336,26.64,6.48,26.64,6.48,26.352,6.624,26.352,6.624,26.064,6.768,26.064,6.768,25.776,6.912,25.776,6.912,25.632,7.056,25.632,7.056,25.344,7.2,25.344,7.2,25.2,7.344,25.2,7.344,24.912,7.488,24.912,7.488,24.768,7.632,24.768,7.632,24.624,7.776,24.624,7.776,24.48,7.92,24.48,7.92,24.336,8.064,24.336,8.064,24.192,8.208,24.192,8.208,24.048,8.352,24.048,8.352,23.904,8.496,23.904,8.496,23.76,8.64,23.76,8.64,23.616,8.784,23.616,8.784,23.472,8.928,23.472,8.928,23.328,9.216,23.328,9.216,23.184,9.36,23.184,9.36,23.04,9.648,23.04,9.648,22.896,9.936,22.896,9.936,22.752,10.224,22.752,10.224,22.608,10.512,22.608,10.512,22.464,10.944,22.464,10.944,22.32,11.376,22.32,11.376,22.176,11.952,22.176,11.952,21.744,12.096,21.744,12.096,21.312,12.24,21.312,12.24,20.736,12.384,20.736,12.384,20.304,12.528,20.304,12.528,19.728,12.672,19.728,12.672,19.296,12.816,19.296,12.816,18.72,12.96,18.72,12.96,18.144,13.104,18.144,13.104,17.712,13.248,17.712,13.248,17.136,13.392,17.136,13.392,16.704,13.536,16.704,13.536,16.128,13.68,16.128,13.68,15.696,13.824,15.696,13.824,14.256,13.68,14.256,13.68,14.112,13.536,14.112,13.536,13.968,13.392,13.968,13.392,13.68,13.248,13.68,13.248,13.536,13.104,13.536,13.104,13.392,12.96,13.392,12.96,13.104,12.816,13.104,12.816,12.816,12.672,12.816,12.672,12.528,12.528,12.528,12.528,12.24,12.384,12.24,12.384,11.952,12.24,11.952,12.24,11.376,12.096,11.376,12.096,10.512,11.952,10.512,11.952,8.784,12.096,8.784,12.096,7.92,12.24,7.92,12.24,7.488,12.384,7.488,12.384,7.056,12.528,7.056,12.528,6.768,12.672,6.768,12.672,6.48,12.816,6.48,12.816,6.192,12.96,6.192,12.96,6.048,13.104,6.048,13.104,5.76,13.248,5.76,13.248,5.616,13.392,5.616,13.392,5.328,13.536,5.328,13.536,5.184,13.68,5.184,13.68,5.04,13.824,5.04,13.824,4.896,13.968,4.896,13.968,4.752,14.112,4.752,14.112,4.608,14.256,4.608,14.256,4.464,14.4,4.464,14.4,4.32,14.688,4.32,14.688,4.176,14.832,4.176,14.832,4.032,14.976,4.032,14.976,3.888,15.264,3.888,15.264,3.744,15.408,3.744,15.408,3.6,15.552,3.6,15.552,2.16,15.408,2.16,15.408,0"  stroke="none" stroke-width="0"/>
    <polygon fill="black" points="0,35.712,0,36.432,1.584,36.432,1.584,36.288,1.872,36.288,1.872,36.144,2.304,36.144,2.304,36,2.736,36,2.736,35.856,3.456,35.856,3.456,35.712"  stroke="none" stroke-width="0"/>
    <g  id="connector0pad">
     <circle fill="black" cx="5.09529"  cy="10.5165" stroke="none" r="2.7" stroke-width="0"/>
    </g>
   </g>
  </g>
 </g>
 <g partID="120900">
  <g transform="translate(48.816,63.7924)">
   <g  id="groundplane">
    <polygon fill="black" points="0,0,0,7.344,4.896,7.344,4.896,7.488,5.616,7.488,5.616,7.632,6.048,7.632,6.048,7.776,6.336,7.776,6.336,7.92,6.624,7.92,6.624,8.064,6.768,8.064,6.768,8.208,7.056,8.208,7.056,8.352,7.2,8.352,7.2,8.496,7.344,8.496,7.344,8.64,7.488,8.64,7.488,8.784,7.632,8.784,7.632,8.928,7.776,8.928,7.776,9.072,7.92,9.072,7.92,9.216,14.544,9.216,14.544,9.072,14.688,9.072,14.688,8.928,14.832,8.928,14.832,8.784,14.976,8.784,14.976,8.64,15.12,8.64,15.12,8.496,15.264,8.496,15.264,3.312,13.248,3.312,13.248,3.168,13.104,3.168,13.104,1.152,2.88,1.152,2.88,1.008,2.448,1.008,2.448,0.864,2.16,0.864,2.16,0.72,2.016,0.72,2.016,0.576,1.872,0.576,1.872,0.432,1.728,0.432,1.728,0.288,1.584,0.288,1.584,0.144,1.44,0.144,1.44,0"  stroke="none" stroke-width="0"/>
    <polygon fill="black" points="0,7.344,0,8.208,1.44,8.208,1.44,8.064,1.584,8.064,1.584,7.92,1.872,7.92,1.872,7.776,2.16,7.776,2.16,7.632,2.592,7.632,2.592,7.488,3.168,7.488,3.168,7.344"  stroke="none" stroke-width="0"/>
    <g  id="connector0pad">
     <circle fill="black" cx="9.099"  cy="5.067" stroke="none" r="2.7" stroke-width="0"/>
    </g>
   </g>
  </g>
 </g>
 <g partID="120910">
  <g transform="translate(117.216,99.2156)">
   <g  id="groundplane">
    <polygon fill="black" points="20.16,0,20.16,0.144,20.016,0.144,20.016,0.288,19.872,0.288,19.872,0.432,19.728,0.432,19.728,0.576,19.584,0.576,19.584,0.72,19.44,0.72,19.44,0.864,19.296,0.864,19.296,1.008,19.008,1.008,19.008,1.152,18.864,1.152,18.864,1.296,18.576,1.296,18.576,1.44,18.288,1.44,18.288,1.584,18,1.584,18,10.656,17.856,10.656,17.856,11.088,17.712,11.088,17.712,11.376,17.568,11.376,17.568,11.52,17.424,11.52,17.424,11.664,17.28,11.664,17.28,11.808,17.136,11.808,17.136,11.952,16.992,11.952,16.992,12.096,16.704,12.096,16.704,12.24,16.416,12.24,16.416,12.384,16.128,12.384,16.128,12.528,0,12.528,0,22.752,5.76,22.752,5.76,22.896,6.336,22.896,6.336,23.04,6.768,23.04,6.768,23.184,7.056,23.184,7.056,23.328,7.488,23.328,7.488,23.472,7.776,23.472,7.776,23.616,8.064,23.616,8.064,23.76,8.208,23.76,8.208,23.904,8.496,23.904,8.496,24.048,8.64,24.048,8.64,24.192,8.928,24.192,8.928,24.336,9.072,24.336,9.072,24.48,9.216,24.48,9.216,24.624,9.36,24.624,9.36,24.768,9.504,24.768,9.504,24.912,9.792,24.912,9.792,25.056,9.936,25.056,9.936,25.2,10.08,25.2,10.08,25.344,10.224,25.344,10.224,25.632,10.368,25.632,10.368,25.776,10.512,25.776,10.512,25.92,10.656,25.92,10.656,26.064,10.8,26.064,10.8,26.352,10.944,26.352,10.944,26.496,11.088,26.496,11.088,26.784,11.232,26.784,11.232,26.928,11.376,26.928,11.376,27.216,11.52,27.216,11.52,27.504,11.664,27.504,11.664,27.792,11.808,27.792,11.808,28.08,11.952,28.08,11.952,28.512,12.096,28.512,12.096,29.088,12.24,29.088,12.24,29.952,12.384,29.952,12.384,32.112,12.24,32.112,12.24,32.976,12.096,32.976,12.096,33.696,13.536,33.696,13.536,33.552,13.68,33.552,13.68,33.408,13.824,33.408,13.824,33.264,13.968,33.264,13.968,33.12,14.256,33.12,14.256,32.976,14.4,32.976,14.4,32.832,14.544,32.832,14.544,32.688,14.688,32.688,14.688,32.544,14.832,32.544,14.832,32.4,14.976,32.4,14.976,32.256,15.12,32.256,15.12,31.968,15.264,31.968,15.264,31.824,15.408,31.824,15.408,31.68,15.552,31.68,15.552,31.536,15.696,31.536,15.696,31.248,15.84,31.248,15.84,31.104,15.984,31.104,15.984,30.96,16.128,30.96,16.128,30.672,16.272,30.672,16.272,30.528,16.416,30.528,16.416,30.24,16.56,30.24,16.56,30.096,16.704,30.096,16.704,29.952,16.848,29.952,16.848,29.664,16.992,29.664,16.992,29.376,17.136,29.376,17.136,29.232,17.28,29.232,17.28,28.944,17.424,28.944,17.424,28.8,17.568,28.8,17.568,28.512,17.712,28.512,17.712,28.224,17.856,28.224,17.856,28.08,18,28.08,18,27.792,18.144,27.792,18.144,27.504,18.288,27.504,18.288,27.216,18.432,27.216,18.432,26.928,18.576,26.928,18.576,26.64,18.72,26.64,18.72,26.352,18.864,26.352,18.864,26.064,19.008,26.064,19.008,25.776,19.152,25.776,19.152,25.488,19.296,25.488,19.296,25.056,19.44,25.056,19.44,24.768,19.584,24.768,19.584,24.336,19.728,24.336,19.728,24.048,19.872,24.048,19.872,23.616,20.016,23.616,20.016,23.184,20.16,23.184,20.16,22.752,20.304,22.752,20.304,22.32,20.448,22.32,20.448,21.888,20.592,21.888,20.592,21.312,20.736,21.312,20.736,20.736,20.88,20.736,20.88,20.16,21.024,20.16,21.024,19.44,21.168,19.44,21.168,18.72,21.312,18.72,21.312,17.712,21.456,17.712,21.456,16.416,21.6,16.416,21.6,0"  stroke="none" stroke-width="0"/>
    <polygon fill="black" points="0,22.752,0,23.184,1.44,23.184,1.44,23.04,1.872,23.04,1.872,22.896,2.448,22.896,2.448,22.752"  stroke="none" stroke-width="0"/>
    <g  id="connector0pad">
     <circle fill="black" cx="5.24025"  cy="17.9232" stroke="none" r="2.7" stroke-width="0"/>
    </g>
   </g>
  </g>
 </g>
 <g partID="120920">
  <g transform="translate(2.88,2.88)">
   <g  id="groundplane">
    <polygon fill="black" points="23.76,0,23.76,0.144,22.176,0.144,22.176,1.728,22.464,1.728,22.464,1.872,22.608,1.872,22.608,2.016,22.752,2.016,22.752,2.16,22.896,2.16,22.896,2.304,23.04,2.304,23.04,2.448,23.328,2.448,23.328,2.592,23.472,2.592,23.472,2.736,23.616,2.736,23.616,2.88,23.76,2.88,23.76,3.168,23.904,3.168,23.904,3.312,24.048,3.312,24.048,3.456,24.192,3.456,24.192,3.6,24.336,3.6,24.336,3.888,24.48,3.888,24.48,4.032,24.624,4.032,24.624,4.32,24.768,4.32,24.768,4.464,24.912,4.464,24.912,4.752,25.056,4.752,25.056,5.04,25.2,5.04,25.2,5.328,25.344,5.328,25.344,5.616,25.488,5.616,25.488,6.048,25.632,6.048,25.632,6.624,25.776,6.624,25.776,7.488,25.92,7.488,25.92,9.648,25.776,9.648,25.776,10.512,25.632,10.512,25.632,10.944,94.032,10.944,94.032,11.088,94.752,11.088,94.752,11.232,95.04,11.232,95.04,11.376,95.328,11.376,95.328,11.52,95.616,11.52,95.616,11.664,95.904,11.664,95.904,11.808,96.048,11.808,96.048,11.952,96.192,11.952,96.192,12.096,96.336,12.096,96.336,12.24,96.48,12.24,96.48,12.384,96.624,12.384,96.624,12.528,97.92,12.528,97.92,12.672,98.352,12.672,98.352,12.816,98.64,12.816,98.64,12.96,98.928,12.96,98.928,13.104,99.072,13.104,99.072,13.248,99.216,13.248,99.216,13.392,99.36,13.392,99.36,13.536,99.504,13.536,99.504,13.824,99.648,13.824,99.648,13.968,99.792,13.968,99.792,14.4,99.936,14.4,99.936,16.704,116.64,16.704,116.64,16.56,116.064,16.56,116.064,16.416,115.632,16.416,115.632,16.272,115.344,16.272,115.344,16.128,115.056,16.128,115.056,15.984,114.768,15.984,114.768,15.84,114.48,15.84,114.48,15.696,114.192,15.696,114.192,15.552,114.048,15.552,114.048,15.408,113.76,15.408,113.76,15.264,113.616,15.264,113.616,15.12,113.472,15.12,113.472,14.976,113.184,14.976,113.184,14.832,113.04,14.832,113.04,14.688,112.896,14.688,112.896,14.544,112.752,14.544,112.752,14.4,112.608,14.4,112.608,14.256,112.464,14.256,112.464,14.112,112.32,14.112,112.32,13.968,112.176,13.968,112.176,13.824,112.032,13.824,112.032,13.68,111.888,13.68,111.888,13.392,111.744,13.392,111.744,13.248,111.6,13.248,111.6,13.104,111.456,13.104,111.456,12.816,111.312,12.816,111.312,12.528,111.168,12.528,111.168,12.384,111.024,12.384,111.024,12.096,110.88,12.096,110.88,11.808,110.736,11.808,110.736,11.376,110.592,11.376,110.592,11.088,110.448,11.088,110.448,10.512,110.304,10.512,110.304,9.936,110.16,9.936,110.16,7.2,110.304,7.2,110.304,6.48,110.448,6.48,110.448,5.904,110.592,5.904,110.592,5.616,110.736,5.616,110.736,5.184,110.88,5.184,110.88,4.896,111.024,4.896,111.024,4.608,111.168,4.608,111.168,4.464,111.312,4.464,111.312,4.176,111.456,4.176,111.456,4.032,111.6,4.032,111.6,3.744,111.744,3.744,111.744,3.6,111.888,3.6,111.888,3.456,112.032,3.456,112.032,3.168,112.176,3.168,112.176,3.024,112.32,3.024,112.32,2.88,112.464,2.88,112.464,2.736,112.608,2.736,112.608,2.592,112.752,2.592,112.752,2.448,112.896,2.448,112.896,2.304,113.04,2.304,113.04,2.16,113.328,2.16,113.328,2.016,113.472,2.016,113.472,1.872,113.616,1.872,113.616,1.728,113.904,1.728,113.904,0.288,113.76,0.288,113.76,0.144,112.32,0.144,112.32,0"  stroke="none" stroke-width="0"/>
    <polygon fill="black" points="8.208,5.904,8.208,6.048,8.064,6.048,8.064,6.192,7.776,6.192,7.776,6.336,7.632,6.336,7.632,6.48,7.488,6.48,7.488,6.624,7.344,6.624,7.344,6.768,7.2,6.768,7.2,6.912,6.912,6.912,6.912,7.2,6.768,7.2,6.768,7.344,6.624,7.344,6.624,7.488,6.48,7.488,6.48,7.632,6.336,7.632,6.336,7.776,6.192,7.776,6.192,8.064,6.048,8.064,6.048,8.208,5.904,8.208,5.904,8.352,5.76,8.352,5.76,8.64,5.616,8.64,5.616,8.784,5.472,8.784,5.472,8.928,5.328,8.928,5.328,9.216,5.184,9.216,5.184,9.36,5.04,9.36,5.04,9.648,4.896,9.648,4.896,9.792,4.752,9.792,4.752,10.08,4.608,10.08,4.608,10.224,4.464,10.224,4.464,10.512,4.32,10.512,4.32,10.656,4.176,10.656,4.176,10.944,4.032,10.944,4.032,11.232,3.888,11.232,3.888,11.376,3.744,11.376,3.744,11.664,3.6,11.664,3.6,11.952,3.456,11.952,3.456,12.24,3.312,12.24,3.312,12.528,3.168,12.528,3.168,12.816,3.024,12.816,3.024,12.96,2.88,12.96,2.88,13.248,2.736,13.248,2.736,13.68,2.592,13.68,2.592,13.968,2.448,13.968,2.448,14.256,2.304,14.256,2.304,14.544,2.16,14.544,2.16,14.976,2.016,14.976,2.016,15.264,1.872,15.264,1.872,15.696,1.728,15.696,1.728,16.128,1.584,16.128,1.584,16.56,1.44,16.56,1.44,16.704,15.84,16.704,15.84,16.56,15.264,16.56,15.264,16.416,14.832,16.416,14.832,16.272,14.544,16.272,14.544,16.128,14.256,16.128,14.256,15.984,13.968,15.984,13.968,15.84,13.68,15.84,13.68,15.696,13.392,15.696,13.392,15.552,13.248,15.552,13.248,15.408,12.96,15.408,12.96,15.264,12.816,15.264,12.816,15.12,12.672,15.12,12.672,14.976,12.384,14.976,12.384,14.832,12.24,14.832,12.24,14.688,12.096,14.688,12.096,14.544,11.952,14.544,11.952,14.4,11.808,14.4,11.808,14.256,11.664,14.256,11.664,14.112,11.52,14.112,11.52,13.968,11.376,13.968,11.376,13.824,11.232,13.824,11.232,13.68,11.088,13.68,11.088,13.392,10.944,13.392,10.944,13.248,10.8,13.248,10.8,13.104,10.656,13.104,10.656,12.816,10.512,12.816,10.512,12.528,10.368,12.528,10.368,12.384,10.224,12.384,10.224,12.096,10.08,12.096,10.08,11.808,9.936,11.808,9.936,11.376,9.792,11.376,9.792,11.088,9.648,11.088,9.648,10.512,9.504,10.512,9.504,9.936,9.36,9.936,9.36,7.2,9.504,7.2,9.504,6.48,9.648,6.48,9.648,5.904"  stroke="none" stroke-width="0"/>
    <polygon fill="black" points="126.432,6.048,126.432,6.624,126.576,6.624,126.576,7.488,126.72,7.488,126.72,9.648,126.576,9.648,126.576,10.512,126.432,10.512,126.432,10.944,126.288,10.944,126.288,11.376,126.144,11.376,126.144,11.664,126,11.664,126,11.952,125.856,11.952,125.856,12.24,125.712,12.24,125.712,12.528,125.568,12.528,125.568,12.816,125.424,12.816,125.424,12.96,125.28,12.96,125.28,13.248,125.136,13.248,125.136,13.392,124.992,13.392,124.992,13.536,124.848,13.536,124.848,13.68,124.704,13.68,124.704,13.968,124.56,13.968,124.56,14.112,124.416,14.112,124.416,14.256,124.272,14.256,124.272,14.4,124.128,14.4,124.128,14.544,123.984,14.544,123.984,14.688,123.84,14.688,123.84,14.832,123.552,14.832,123.552,14.976,123.408,14.976,123.408,15.12,123.264,15.12,123.264,15.264,123.12,15.264,123.12,15.408,122.832,15.408,122.832,15.552,122.544,15.552,122.544,15.696,122.4,15.696,122.4,15.84,122.112,15.84,122.112,15.984,121.824,15.984,121.824,16.128,121.536,16.128,121.536,16.272,121.104,16.272,121.104,16.416,120.672,16.416,120.672,16.56,120.096,16.56,120.096,16.704,134.496,16.704,134.496,16.416,134.352,16.416,134.352,15.984,134.208,15.984,134.208,15.552,134.064,15.552,134.064,15.264,133.92,15.264,133.92,14.832,133.776,14.832,133.776,14.544,133.632,14.544,133.632,14.256,133.488,14.256,133.488,13.824,133.344,13.824,133.344,13.536,133.2,13.536,133.2,13.248,133.056,13.248,133.056,12.96,132.912,12.96,132.912,12.672,132.768,12.672,132.768,12.384,132.624,12.384,132.624,12.096,132.48,12.096,132.48,11.808,132.336,11.808,132.336,11.664,132.192,11.664,132.192,11.376,132.048,11.376,132.048,11.088,131.904,11.088,131.904,10.8,131.76,10.8,131.76,10.656,131.616,10.656,131.616,10.368,131.472,10.368,131.472,10.224,131.328,10.224,131.328,9.936,131.184,9.936,131.184,9.792,131.04,9.792,131.04,9.504,130.896,9.504,130.896,9.36,130.752,9.36,130.752,9.072,130.608,9.072,130.608,8.928,130.464,8.928,130.464,8.784,130.32,8.784,130.32,8.496,130.176,8.496,130.176,8.352,130.032,8.352,130.032,8.208,129.888,8.208,129.888,7.92,129.744,7.92,129.744,7.776,129.6,7.776,129.6,7.632,129.456,7.632,129.456,7.488,129.312,7.488,129.312,7.344,129.168,7.344,129.168,7.056,129.024,7.056,129.024,6.912,128.88,6.912,128.88,6.768,128.592,6.768,128.592,6.624,128.448,6.624,128.448,6.48,128.304,6.48,128.304,6.336,128.16,6.336,128.16,6.192,127.872,6.192,127.872,6.048"  stroke="none" stroke-width="0"/>
    <polygon fill="black" points="25.488,10.944,25.488,11.376,25.344,11.376,25.344,11.664,25.2,11.664,25.2,11.952,25.056,11.952,25.056,12.24,24.912,12.24,24.912,12.528,24.768,12.528,24.768,12.816,24.624,12.816,24.624,12.96,24.48,12.96,24.48,13.248,24.336,13.248,24.336,13.392,24.192,13.392,24.192,13.536,24.048,13.536,24.048,13.68,23.904,13.68,23.904,13.968,23.76,13.968,23.76,14.112,23.616,14.112,23.616,14.256,23.472,14.256,23.472,14.4,23.328,14.4,23.328,14.544,23.184,14.544,23.184,14.688,23.04,14.688,23.04,14.832,22.752,14.832,22.752,14.976,22.608,14.976,22.608,15.12,22.464,15.12,22.464,15.264,22.32,15.264,22.32,15.408,22.032,15.408,22.032,15.552,21.744,15.552,21.744,15.696,21.6,15.696,21.6,15.84,21.312,15.84,21.312,15.984,21.024,15.984,21.024,16.128,20.736,16.128,20.736,16.272,20.304,16.272,20.304,16.416,19.872,16.416,19.872,16.56,19.296,16.56,19.296,16.704,39.6,16.704,39.6,14.832,39.744,14.832,39.744,14.256,39.888,14.256,39.888,13.968,40.032,13.968,40.032,13.68,40.176,13.68,40.176,13.536,40.32,13.536,40.32,13.392,40.464,13.392,40.464,13.248,40.608,13.248,40.608,13.104,40.752,13.104,40.752,12.96,41.04,12.96,41.04,12.816,41.328,12.816,41.328,12.672,41.76,12.672,41.76,12.528,59.76,12.528,59.76,10.944"  stroke="none" stroke-width="0"/>
    <polygon fill="black" points="69.12,10.944,69.12,20.448,92.16,20.448,92.16,20.304,91.584,20.304,91.584,20.16,91.296,20.16,91.296,20.016,91.008,20.016,91.008,19.872,90.72,19.872,90.72,19.728,90.576,19.728,90.576,19.584,90.288,19.584,90.288,19.44,90.144,19.44,90.144,19.296,90,19.296,90,19.152,89.856,19.152,89.856,19.008,89.712,19.008,89.712,18.864,89.568,18.864,89.568,18.72,89.424,18.72,89.424,18.432,89.28,18.432,89.28,18.288,89.136,18.288,89.136,18,88.992,18,88.992,17.856,88.848,17.856,88.848,17.424,88.704,17.424,88.704,17.136,88.56,17.136,88.56,14.4,88.704,14.4,88.704,13.968,88.848,13.968,88.848,13.68,88.992,13.68,88.992,13.392,89.136,13.392,89.136,13.104,89.28,13.104,89.28,12.96,89.424,12.96,89.424,12.816,89.568,12.816,89.568,12.528,89.712,12.528,89.712,12.384,89.856,12.384,89.856,12.24,90,12.24,90,12.096,90.144,12.096,90.144,11.952,90.432,11.952,90.432,11.808,90.576,11.808,90.576,11.664,90.864,11.664,90.864,11.52,91.008,11.52,91.008,11.376,91.296,11.376,91.296,11.232,91.728,11.232,91.728,11.088,92.448,11.088,92.448,10.944"  stroke="none" stroke-width="0"/>
    <polygon fill="black" points="1.44,16.704,1.44,16.848,39.6,16.848,39.6,16.704"  stroke="none" stroke-width="0"/>
    <polygon fill="black" points="1.44,16.704,1.44,16.848,39.6,16.848,39.6,16.704"  stroke="none" stroke-width="0"/>
    <polygon fill="black" points="99.936,16.704,99.936,16.848,134.496,16.848,134.496,16.704"  stroke="none" stroke-width="0"/>
    <polygon fill="black" points="99.936,16.704,99.936,16.848,134.496,16.848,134.496,16.704"  stroke="none" stroke-width="0"/>
    <polygon fill="black" points="1.44,16.848,1.44,16.992,1.296,16.992,1.296,17.424,1.152,17.424,1.152,17.856,1.008,17.856,1.008,18.432,0.864,18.432,0.864,19.008,0.72,19.008,0.72,19.584,0.576,19.584,0.576,20.304,0.432,20.304,0.432,21.168,0.288,21.168,0.288,22.176,0.144,22.176,0.144,23.76,0,23.76,0,68.256,33.408,68.256,33.408,81.792,33.264,81.792,33.264,82.224,33.12,82.224,33.12,82.512,32.976,82.512,32.976,82.8,32.832,82.8,32.832,83.088,32.688,83.088,32.688,83.376,32.544,83.376,32.544,84.96,32.688,84.96,32.688,85.104,32.832,85.104,32.832,85.392,32.976,85.392,32.976,85.68,33.12,85.68,33.12,85.968,33.264,85.968,33.264,86.4,33.408,86.4,33.408,88.992,33.264,88.992,33.264,89.424,33.12,89.424,33.12,89.712,32.976,89.712,32.976,90,32.832,90,32.832,90.288,32.688,90.288,32.688,90.576,32.544,90.576,32.544,92.16,32.688,92.16,32.688,92.304,32.832,92.304,32.832,92.592,32.976,92.592,32.976,92.88,33.12,92.88,33.12,93.168,33.264,93.168,33.264,93.6,33.408,93.6,33.408,96.192,33.264,96.192,33.264,96.624,33.12,96.624,33.12,96.912,32.976,96.912,32.976,97.2,32.832,97.2,32.832,97.488,32.688,97.488,32.688,97.776,32.544,97.776,32.544,97.92,32.4,97.92,32.4,98.064,32.256,98.064,32.256,98.208,32.112,98.208,32.112,98.352,31.968,98.352,31.968,98.496,31.824,98.496,31.824,98.64,31.68,98.64,31.68,98.784,31.536,98.784,31.536,99.936,48.96,99.936,48.96,99.792,48.384,99.792,48.384,99.648,48.096,99.648,48.096,99.504,47.808,99.504,47.808,99.36,47.52,99.36,47.52,99.216,47.232,99.216,47.232,99.072,47.088,99.072,47.088,98.928,46.944,98.928,46.944,98.784,46.8,98.784,46.8,98.64,46.512,98.64,46.512,98.496,46.368,98.496,46.368,98.352,46.224,98.352,46.224,98.064,46.08,98.064,46.08,97.92,45.936,97.92,45.936,97.776,45.792,97.776,45.792,97.488,45.648,97.488,45.648,97.344,45.504,97.344,45.504,97.056,45.36,97.056,45.36,96.768,45.216,96.768,45.216,96.336,45.072,96.336,45.072,93.456,45.216,93.456,45.216,93.168,45.36,93.168,45.36,92.736,45.504,92.736,45.504,92.448,45.648,92.448,45.648,92.304,45.792,92.304,45.792,90.864,41.616,90.864,41.616,90.72,41.184,90.72,41.184,90.576,40.896,90.576,40.896,90.432,40.752,90.432,40.752,90.288,40.608,90.288,40.608,90.144,40.464,90.144,40.464,90,40.32,90,40.32,89.856,40.176,89.856,40.176,89.712,40.032,89.712,40.032,89.424,39.888,89.424,39.888,89.136,39.744,89.136,39.744,88.56,39.6,88.56,39.6,26.784,39.312,26.784,39.312,26.64,39.168,26.64,39.168,26.496,39.024,26.496,39.024,26.352,38.88,26.352,38.88,26.064,38.736,26.064,38.736,25.92,38.592,25.92,38.592,25.776,38.448,25.776,38.448,25.488,38.304,25.488,38.304,25.344,38.16,25.344,38.16,25.056,38.016,25.056,38.016,24.624,37.872,24.624,37.872,24.192,37.728,24.192,37.728,21.6,37.872,21.6,37.872,21.168,38.016,21.168,38.016,20.88,38.16,20.88,38.16,20.592,38.304,20.592,38.304,20.304,38.448,20.304,38.448,20.016,38.592,20.016,38.592,19.872,38.736,19.872,38.736,19.728,38.88,19.728,38.88,19.584,39.024,19.584,39.024,19.44,39.168,19.44,39.168,19.296,39.312,19.296,39.312,19.152,39.456,19.152,39.456,19.008,39.6,19.008,39.6,16.848"  stroke="none" stroke-width="0"/>
    <polygon fill="black" points="99.936,16.848,99.936,16.992,127.728,16.992,127.728,17.136,128.304,17.136,128.304,17.28,128.592,17.28,128.592,17.424,129.024,17.424,129.024,17.568,129.312,17.568,129.312,17.712,129.456,17.712,129.456,17.856,129.744,17.856,129.744,18,130.032,18,130.032,18.144,130.176,18.144,130.176,18.288,130.32,18.288,130.32,18.432,130.464,18.432,130.464,18.576,130.752,18.576,130.752,18.72,130.896,18.72,130.896,18.864,131.04,18.864,131.04,19.008,131.184,19.008,131.184,19.152,131.328,19.152,131.328,19.44,131.472,19.44,131.472,19.584,131.616,19.584,131.616,19.728,131.76,19.728,131.76,19.872,131.904,19.872,131.904,20.16,132.048,20.16,132.048,20.448,132.192,20.448,132.192,20.592,132.336,20.592,132.336,20.88,132.48,20.88,132.48,21.312,132.624,21.312,132.624,21.6,132.768,21.6,132.768,22.176,132.912,22.176,132.912,25.344,132.768,25.344,132.768,25.92,132.624,25.92,132.624,26.352,132.48,26.352,132.48,26.64,132.336,26.64,132.336,26.928,132.192,26.928,132.192,27.216,132.048,27.216,132.048,27.36,131.904,27.36,131.904,27.648,131.76,27.648,131.76,27.792,131.616,27.792,131.616,27.936,131.472,27.936,131.472,28.224,131.328,28.224,131.328,28.368,131.184,28.368,131.184,28.512,131.04,28.512,131.04,28.656,130.896,28.656,130.896,28.8,130.752,28.8,130.752,28.944,130.608,28.944,130.608,29.088,130.32,29.088,130.32,29.232,130.176,29.232,130.176,29.376,130.032,29.376,130.032,29.52,129.744,29.52,129.744,29.664,129.6,29.664,129.6,29.808,129.312,29.808,129.312,29.952,129.024,29.952,129.024,33.552,128.88,33.552,128.88,43.344,129.024,43.344,129.024,49.248,129.168,49.248,129.168,51.696,129.312,51.696,129.312,51.84,129.456,51.84,129.456,51.984,129.744,51.984,129.744,52.128,130.032,52.128,130.032,52.272,130.176,52.272,130.176,52.416,130.32,52.416,130.32,52.56,130.464,52.56,130.464,52.704,130.752,52.704,130.752,52.848,130.896,52.848,130.896,52.992,131.04,52.992,131.04,53.136,131.184,53.136,131.184,53.28,131.328,53.28,131.328,53.568,131.472,53.568,131.472,53.712,131.616,53.712,131.616,53.856,131.76,53.856,131.76,54,131.904,54,131.904,54.288,132.048,54.288,132.048,54.576,132.192,54.576,132.192,54.72,132.336,54.72,132.336,55.008,132.48,55.008,132.48,55.44,132.624,55.44,132.624,55.728,132.768,55.728,132.768,56.304,132.912,56.304,132.912,59.472,132.768,59.472,132.768,60.048,132.624,60.048,132.624,60.48,132.48,60.48,132.48,60.768,132.336,60.768,132.336,61.056,132.192,61.056,132.192,61.344,132.048,61.344,132.048,61.488,131.904,61.488,131.904,61.776,131.76,61.776,131.76,61.92,131.616,61.92,131.616,62.064,131.472,62.064,131.472,62.352,131.328,62.352,131.328,62.496,131.184,62.496,131.184,62.64,131.04,62.64,131.04,62.784,130.896,62.784,130.896,62.928,130.752,62.928,130.752,63.072,130.608,63.072,130.608,63.216,130.32,63.216,130.32,63.36,130.176,63.36,130.176,63.504,130.032,63.504,130.032,63.648,129.744,63.648,129.744,63.792,129.6,63.792,129.6,63.936,129.312,63.936,129.312,64.08,129.024,64.08,129.024,64.224,128.736,64.224,128.736,64.368,128.304,64.368,128.304,64.512,127.872,64.512,127.872,64.656,127.584,64.656,127.584,65.088,127.44,65.088,127.44,65.664,127.296,65.664,127.296,66.096,127.152,66.096,127.152,66.672,127.008,66.672,127.008,67.104,126.864,67.104,126.864,67.68,126.72,67.68,126.72,68.256,126.576,68.256,126.576,68.688,126.432,68.688,126.432,69.264,126.288,69.264,126.288,69.696,126.144,69.696,126.144,70.272,126,70.272,126,70.704,125.856,70.704,125.856,72.576,126,72.576,126,72.72,126.144,72.72,126.144,72.864,126.288,72.864,126.288,73.008,126.432,73.008,126.432,73.296,126.576,73.296,126.576,73.44,126.72,73.44,126.72,73.584,126.864,73.584,126.864,73.872,127.008,73.872,127.008,74.16,127.152,74.16,127.152,74.304,127.296,74.304,127.296,74.736,127.44,74.736,127.44,75.024,127.584,75.024,127.584,75.456,127.728,75.456,127.728,76.032,127.872,76.032,127.872,79.344,127.728,79.344,127.728,79.776,127.584,79.776,127.584,80.208,127.44,80.208,127.44,80.64,127.296,80.64,127.296,82.08,127.44,82.08,127.44,82.368,127.584,82.368,127.584,82.512,127.728,82.512,127.728,82.8,127.872,82.8,127.872,82.944,128.016,82.944,128.016,83.232,128.16,83.232,128.16,83.52,128.304,83.52,128.304,83.664,128.448,83.664,128.448,83.952,130.464,83.952,130.464,84.096,131.184,84.096,131.184,84.24,131.616,84.24,131.616,84.384,132.048,84.384,132.048,84.528,132.336,84.528,132.336,84.672,132.624,84.672,132.624,84.816,132.912,84.816,132.912,84.96,133.056,84.96,133.056,85.104,133.344,85.104,133.344,85.248,133.488,85.248,133.488,85.392,133.776,85.392,133.776,85.536,133.92,85.536,133.92,85.68,134.064,85.68,134.064,85.824,134.208,85.824,134.208,85.968,134.352,85.968,134.352,86.112,134.496,86.112,134.496,86.256,135.936,86.256,135.936,23.184,135.792,23.184,135.792,21.888,135.648,21.888,135.648,20.88,135.504,20.88,135.504,20.16,135.36,20.16,135.36,19.44,135.216,19.44,135.216,18.864,135.072,18.864,135.072,18.288,134.928,18.288,134.928,17.712,134.784,17.712,134.784,17.28,134.64,17.28,134.64,16.848"  stroke="none" stroke-width="0"/>
    <polygon fill="black" points="99.936,16.992,99.936,26.784,115.776,26.784,115.776,26.928,116.208,26.928,116.208,27.072,116.496,27.072,116.496,27.216,116.784,27.216,116.784,27.36,116.928,27.36,116.928,27.504,117.072,27.504,117.072,27.648,117.216,27.648,117.216,27.792,117.36,27.792,117.36,27.936,117.504,27.936,117.504,28.224,117.648,28.224,117.648,28.512,117.792,28.512,117.792,28.8,117.936,28.8,117.936,29.088,118.08,29.088,118.08,29.376,118.224,29.376,118.224,29.664,118.368,29.664,118.368,29.952,118.512,29.952,118.512,30.24,118.656,30.24,118.656,30.528,118.8,30.528,118.8,30.816,118.944,30.816,118.944,31.104,119.088,31.104,119.088,31.392,119.232,31.392,119.232,31.68,119.376,31.68,119.376,31.968,119.52,31.968,119.52,32.256,119.664,32.256,119.664,32.544,119.808,32.544,119.808,32.688,119.952,32.688,119.952,32.832,120.384,32.832,120.384,32.976,120.672,32.976,120.672,33.12,120.816,33.12,120.816,33.264,121.104,33.264,121.104,33.408,122.544,33.408,122.544,32.4,122.688,32.4,122.688,29.664,122.4,29.664,122.4,29.52,122.256,29.52,122.256,29.376,122.112,29.376,122.112,29.232,121.824,29.232,121.824,29.088,121.68,29.088,121.68,28.944,121.536,28.944,121.536,28.8,121.392,28.8,121.392,28.656,121.248,28.656,121.248,28.512,121.104,28.512,121.104,28.368,120.96,28.368,120.96,28.224,120.816,28.224,120.816,28.08,120.672,28.08,120.672,27.792,120.528,27.792,120.528,27.648,120.384,27.648,120.384,27.504,120.24,27.504,120.24,27.216,120.096,27.216,120.096,26.928,119.952,26.928,119.952,26.64,119.808,26.64,119.808,26.352,119.664,26.352,119.664,26.064,119.52,26.064,119.52,25.488,119.376,25.488,119.376,24.624,119.232,24.624,119.232,22.896,119.376,22.896,119.376,22.032,119.52,22.032,119.52,21.6,119.664,21.6,119.664,21.168,119.808,21.168,119.808,20.88,119.952,20.88,119.952,20.592,120.096,20.592,120.096,20.304,120.24,20.304,120.24,20.16,120.384,20.16,120.384,19.872,120.528,19.872,120.528,19.728,120.672,19.728,120.672,19.44,120.816,19.44,120.816,19.296,120.96,19.296,120.96,19.152,121.104,19.152,121.104,19.008,121.248,19.008,121.248,18.864,121.392,18.864,121.392,18.72,121.536,18.72,121.536,18.576,121.68,18.576,121.68,18.432,121.968,18.432,121.968,18.288,122.112,18.288,122.112,18.144,122.256,18.144,122.256,18,122.544,18,122.544,17.856,122.688,17.856,122.688,17.712,122.976,17.712,122.976,17.568,123.264,17.568,123.264,17.424,123.552,17.424,123.552,17.28,123.984,17.28,123.984,17.136,124.56,17.136,124.56,16.992"  stroke="none" stroke-width="0"/>
    <polygon fill="black" points="55.152,18.864,55.152,20.448,59.76,20.448,59.76,18.864"  stroke="none" stroke-width="0"/>
    <polygon fill="black" points="55.152,20.448,55.152,20.592,93.6,20.592,93.6,20.448"  stroke="none" stroke-width="0"/>
    <polygon fill="black" points="55.152,20.448,55.152,20.592,93.6,20.592,93.6,20.448"  stroke="none" stroke-width="0"/>
    <polygon fill="black" points="55.152,20.592,55.152,25.056,91.008,25.056,91.008,26.928,93.6,26.928,93.6,20.592"  stroke="none" stroke-width="0"/>
    <polygon fill="black" points="55.152,25.056,55.152,28.08,53.136,28.08,53.136,49.824,63.792,49.824,63.792,49.68,63.072,49.68,63.072,49.536,62.64,49.536,62.64,49.392,62.352,49.392,62.352,49.248,62.064,49.248,62.064,49.104,61.776,49.104,61.776,48.96,61.632,48.96,61.632,48.816,61.344,48.816,61.344,48.672,61.2,48.672,61.2,48.528,61.056,48.528,61.056,48.384,60.912,48.384,60.912,48.24,60.768,48.24,60.768,48.096,60.624,48.096,60.624,47.952,60.48,47.952,60.48,47.808,60.336,47.808,60.336,47.52,60.192,47.52,60.192,47.376,60.048,47.376,60.048,47.088,59.904,47.088,59.904,46.944,59.76,46.944,59.76,46.656,59.616,46.656,59.616,46.224,59.472,46.224,59.472,45.792,59.328,45.792,59.328,43.2,59.472,43.2,59.472,42.768,59.616,42.768,59.616,42.336,59.76,42.336,59.76,42.048,59.904,42.048,59.904,41.904,60.048,41.904,60.048,41.616,60.192,41.616,60.192,41.472,60.336,41.472,60.336,41.184,60.48,41.184,60.48,41.04,60.624,41.04,60.624,40.896,60.768,40.896,60.768,40.752,60.912,40.752,60.912,40.608,61.056,40.608,61.056,40.464,61.2,40.464,61.2,40.32,61.344,40.32,61.344,38.736,61.2,38.736,61.2,33.84,60.912,33.84,60.912,33.696,60.768,33.696,60.768,33.552,60.624,33.552,60.624,33.264,60.48,33.264,60.48,33.12,60.336,33.12,60.336,32.976,60.192,32.976,60.192,32.688,60.048,32.688,60.048,32.544,59.904,32.544,59.904,32.256,59.76,32.256,59.76,31.968,59.616,31.968,59.616,31.536,59.472,31.536,59.472,28.8,59.616,28.8,59.616,28.368,59.76,28.368,59.76,27.936,59.904,27.936,59.904,27.648,60.048,27.648,60.048,27.504,60.192,27.504,60.192,27.216,60.336,27.216,60.336,27.072,60.48,27.072,60.48,26.928,60.624,26.928,60.624,26.784,60.768,26.784,60.768,26.64,60.912,26.64,60.912,26.496,61.056,26.496,61.056,26.352,61.2,26.352,61.2,26.208,61.344,26.208,61.344,26.064,61.488,26.064,61.488,25.92,61.776,25.92,61.776,25.776,61.92,25.776,61.92,25.632,62.208,25.632,62.208,25.488,62.496,25.488,62.496,25.344,62.928,25.344,62.928,25.2,63.504,25.2,63.504,25.056"  stroke="none" stroke-width="0"/>
    <polygon fill="black" points="65.232,25.056,65.232,25.2,65.952,25.2,65.952,25.344,66.384,25.344,66.384,25.488,66.672,25.488,66.672,25.632,66.96,25.632,66.96,25.776,67.104,25.776,67.104,25.92,67.392,25.92,67.392,26.064,67.536,26.064,67.536,26.208,67.68,26.208,67.68,26.352,67.824,26.352,67.824,26.496,67.968,26.496,67.968,26.64,68.112,26.64,68.112,26.784,68.256,26.784,68.256,26.928,68.4,26.928,68.4,27.072,68.544,27.072,68.544,27.36,68.688,27.36,68.688,27.504,68.832,27.504,68.832,27.792,68.976,27.792,68.976,28.08,69.12,28.08,69.12,28.368,69.264,28.368,69.264,28.8,69.408,28.8,69.408,31.392,69.264,31.392,69.264,31.824,69.12,31.824,69.12,32.112,68.976,32.112,68.976,32.4,68.832,32.4,68.832,32.688,68.688,32.688,68.688,34.128,81.072,34.128,81.072,25.056"  stroke="none" stroke-width="0"/>
    <polygon fill="black" points="99.936,26.784,99.936,26.928,108.72,26.928,108.72,26.784"  stroke="none" stroke-width="0"/>
    <polygon fill="black" points="69.12,40.464,69.12,41.904,69.264,41.904,69.264,42.192,69.408,42.192,69.408,42.48,69.552,42.48,69.552,42.912,69.696,42.912,69.696,43.344,69.84,43.344,69.84,45.648,69.696,45.648,69.696,46.224,69.552,46.224,69.552,46.512,69.408,46.512,69.408,46.8,69.264,46.8,69.264,47.088,69.12,47.088,69.12,47.376,68.976,47.376,68.976,47.52,68.832,47.52,68.832,47.664,68.688,47.664,68.688,47.952,68.544,47.952,68.544,48.096,68.4,48.096,68.4,48.24,68.256,48.24,68.256,48.384,68.112,48.384,68.112,48.528,67.968,48.528,67.968,48.672,67.68,48.672,67.68,48.816,67.536,48.816,67.536,48.96,67.392,48.96,67.392,49.104,67.104,49.104,67.104,49.248,66.816,49.248,66.816,49.392,66.528,49.392,66.528,49.536,66.096,49.536,66.096,49.68,65.376,49.68,65.376,49.824,80.928,49.824,80.928,49.68,80.784,49.68,80.784,40.464"  stroke="none" stroke-width="0"/>
    <polygon fill="black" points="91.296,40.464,91.296,49.824,89.136,49.824,89.136,54.864,89.424,54.864,89.424,55.008,89.568,55.008,89.568,55.152,89.712,55.152,89.712,55.296,89.856,55.296,89.856,55.584,90,55.584,90,55.728,90.144,55.728,90.144,55.872,90.288,55.872,90.288,56.16,90.432,56.16,90.432,56.304,90.576,56.304,90.576,56.592,90.72,56.592,90.72,56.88,90.864,56.88,90.864,57.312,91.008,57.312,91.008,57.888,91.152,57.888,91.152,60.048,91.008,60.048,91.008,60.624,90.864,60.624,90.864,60.912,90.72,60.912,90.72,61.2,90.576,61.2,90.576,61.488,90.432,61.488,90.432,61.776,90.288,61.776,90.288,61.92,90.144,61.92,90.144,62.064,90,62.064,90,62.352,89.856,62.352,89.856,62.496,89.712,62.496,89.712,62.64,89.568,62.64,89.568,62.784,89.424,62.784,89.424,62.928,89.28,62.928,89.28,63.072,88.992,63.072,88.992,63.216,88.848,63.216,88.848,63.36,88.704,63.36,88.704,63.504,88.416,63.504,88.416,63.648,88.128,63.648,88.128,63.792,87.84,63.792,87.84,63.936,87.408,63.936,87.408,64.08,86.688,64.08,86.688,64.224,97.2,64.224,97.2,43.2,97.344,43.2,97.344,42.768,97.488,42.768,97.488,42.48,97.632,42.48,97.632,42.336,97.776,42.336,97.776,42.048,97.92,42.048,97.92,41.904,98.208,41.904,98.208,40.464"  stroke="none" stroke-width="0"/>
    <polygon fill="black" points="53.136,49.824,53.136,49.968,82.8,49.968,82.8,49.824"  stroke="none" stroke-width="0"/>
    <polygon fill="black" points="53.136,49.824,53.136,49.968,82.8,49.968,82.8,49.824"  stroke="none" stroke-width="0"/>
    <polygon fill="black" points="53.136,49.968,53.136,53.712,69.552,53.712,69.552,57.888,69.696,57.888,69.696,60.048,69.552,60.048,69.552,64.224,85.104,64.224,85.104,64.08,84.384,64.08,84.384,63.936,83.952,63.936,83.952,63.792,83.664,63.792,83.664,63.648,83.376,63.648,83.376,63.504,83.088,63.504,83.088,63.36,82.944,63.36,82.944,63.216,82.656,63.216,82.656,63.072,82.512,63.072,82.512,62.928,82.368,62.928,82.368,62.784,82.224,62.784,82.224,62.64,82.08,62.64,82.08,62.496,81.936,62.496,81.936,62.352,81.792,62.352,81.792,62.208,81.648,62.208,81.648,61.92,81.504,61.92,81.504,61.776,81.36,61.776,81.36,61.632,81.216,61.632,81.216,61.344,81.072,61.344,81.072,61.056,80.928,61.056,80.928,60.624,80.784,60.624,80.784,60.192,80.64,60.192,80.64,57.6,80.784,57.6,80.784,57.168,80.928,57.168,80.928,56.736,81.072,56.736,81.072,56.448,81.216,56.448,81.216,56.304,81.36,56.304,81.36,56.016,81.504,56.016,81.504,55.872,81.648,55.872,81.648,55.584,81.792,55.584,81.792,55.44,81.936,55.44,81.936,55.296,82.08,55.296,82.08,55.152,82.224,55.152,82.224,55.008,82.368,55.008,82.368,54.864,82.512,54.864,82.512,54.72,82.8,54.72,82.8,49.968"  stroke="none" stroke-width="0"/>
    <polygon fill="black" points="53.136,53.712,53.136,55.728,59.04,55.728,59.04,53.712"  stroke="none" stroke-width="0"/>
    <polygon fill="black" points="67.536,64.224,67.536,64.368,97.2,64.368,97.2,64.224"  stroke="none" stroke-width="0"/>
    <polygon fill="black" points="67.536,64.224,67.536,64.368,97.2,64.368,97.2,64.224"  stroke="none" stroke-width="0"/>
    <polygon fill="black" points="67.536,64.368,67.536,69.12,83.088,69.12,83.088,84.816,99.648,84.816,99.648,84.672,99.072,84.672,99.072,84.528,98.64,84.528,98.64,84.384,98.352,84.384,98.352,84.24,98.208,84.24,98.208,84.096,97.92,84.096,97.92,83.952,97.776,83.952,97.776,83.808,97.632,83.808,97.632,83.664,97.488,83.664,97.488,83.52,97.344,83.52,97.344,83.376,97.2,83.376,97.2,83.232,97.056,83.232,97.056,83.088,96.912,83.088,96.912,82.944,96.768,82.944,96.768,82.656,96.624,82.656,96.624,82.368,96.48,82.368,96.48,82.08,96.336,82.08,96.336,81.648,96.192,81.648,96.192,79.344,96.336,79.344,96.336,78.912,96.48,78.912,96.48,78.624,96.624,78.624,96.624,78.336,96.768,78.336,96.768,78.192,96.912,78.192,96.912,77.904,97.056,77.904,97.056,77.76,97.2,77.76,97.2,76.032,97.056,76.032,97.056,75.888,96.912,75.888,96.912,75.744,96.768,75.744,96.768,75.456,96.624,75.456,96.624,75.168,96.48,75.168,96.48,74.88,96.336,74.88,96.336,74.448,96.192,74.448,96.192,72.144,96.336,72.144,96.336,71.712,96.48,71.712,96.48,71.424,96.624,71.424,96.624,71.136,96.768,71.136,96.768,70.992,96.912,70.992,96.912,70.704,97.056,70.704,97.056,70.56,97.2,70.56,97.2,64.368"  stroke="none" stroke-width="0"/>
    <polygon fill="black" points="0,68.256,0,77.76,1.44,77.76,1.44,77.616,1.728,77.616,1.728,77.472,2.16,77.472,2.16,77.328,9.648,77.328,9.648,75.888,9.504,75.888,9.504,75.744,9.36,75.744,9.36,75.456,9.216,75.456,9.216,75.024,9.072,75.024,9.072,74.592,8.928,74.592,8.928,72,9.072,72,9.072,71.568,9.216,71.568,9.216,71.28,9.36,71.28,9.36,70.992,9.504,70.992,9.504,70.704,9.648,70.704,9.648,70.416,9.792,70.416,9.792,70.272,9.936,70.272,9.936,70.128,10.08,70.128,10.08,69.984,10.224,69.984,10.224,69.84,10.368,69.84,10.368,69.696,10.512,69.696,10.512,69.552,10.656,69.552,10.656,69.408,10.8,69.408,10.8,69.264,10.944,69.264,10.944,69.12,11.088,69.12,11.088,68.976,11.376,68.976,11.376,68.832,11.52,68.832,11.52,68.688,11.808,68.688,11.808,68.544,12.24,68.544,12.24,68.4,12.672,68.4,12.672,68.256"  stroke="none" stroke-width="0"/>
    <polygon fill="black" points="15.408,68.256,15.408,68.4,15.84,68.4,15.84,68.544,16.128,68.544,16.128,68.688,16.416,68.688,16.416,68.832,16.704,68.832,16.704,68.976,16.848,68.976,16.848,69.12,17.136,69.12,17.136,69.264,17.28,69.264,17.28,69.408,17.424,69.408,17.424,69.552,17.568,69.552,17.568,69.696,17.712,69.696,17.712,69.84,17.856,69.84,17.856,69.984,18,69.984,18,70.128,23.472,70.128,23.472,68.256"  stroke="none" stroke-width="0"/>
    <polygon fill="black" points="67.536,69.12,67.536,69.264,67.68,69.264,67.68,69.408,67.824,69.408,67.824,69.552,67.968,69.552,67.968,69.696,68.112,69.696,68.112,69.84,68.256,69.84,68.256,69.984,68.4,69.984,68.4,70.128,74.592,70.128,74.592,69.12"  stroke="none" stroke-width="0"/>
    <polygon fill="black" points="68.832,83.664,68.832,84.816,74.592,84.816,74.592,83.664"  stroke="none" stroke-width="0"/>
    <polygon fill="black" points="68.832,84.816,68.832,84.96,100.944,84.96,100.944,84.816"  stroke="none" stroke-width="0"/>
    <polygon fill="black" points="68.832,84.816,68.832,84.96,100.944,84.96,100.944,84.816"  stroke="none" stroke-width="0"/>
    <polygon fill="black" points="68.832,84.96,68.832,85.104,68.976,85.104,68.976,85.392,69.12,85.392,69.12,85.68,69.264,85.68,69.264,86.112,69.408,86.112,69.408,86.688,69.552,86.688,69.552,88.848,69.408,88.848,69.408,89.28,69.264,89.28,69.264,89.712,69.12,89.712,69.12,90,68.976,90,68.976,90.288,68.832,90.288,68.832,90.72,83.088,90.72,83.088,99.216,99.648,99.216,99.648,99.072,99.072,99.072,99.072,98.928,98.64,98.928,98.64,98.784,98.352,98.784,98.352,98.64,98.208,98.64,98.208,98.496,97.92,98.496,97.92,98.352,97.776,98.352,97.776,98.208,97.632,98.208,97.632,98.064,97.488,98.064,97.488,97.92,97.344,97.92,97.344,97.776,97.2,97.776,97.2,97.632,97.056,97.632,97.056,97.488,96.912,97.488,96.912,97.344,96.768,97.344,96.768,97.056,96.624,97.056,96.624,96.768,96.48,96.768,96.48,96.48,96.336,96.48,96.336,96.048,96.192,96.048,96.192,93.744,96.336,93.744,96.336,93.312,96.48,93.312,96.48,93.024,96.624,93.024,96.624,92.736,96.768,92.736,96.768,92.592,96.912,92.592,96.912,92.304,97.056,92.304,97.056,92.16,97.2,92.16,97.2,92.016,97.344,92.016,97.344,91.872,97.488,91.872,97.488,91.728,97.632,91.728,97.632,91.584,97.776,91.584,97.776,91.44,97.92,91.44,97.92,91.296,98.208,91.296,98.208,91.152,98.496,91.152,98.496,91.008,98.784,91.008,98.784,90.864,99.072,90.864,99.072,90.72,100.944,90.72,100.944,84.96"  stroke="none" stroke-width="0"/>
    <polygon fill="black" points="68.832,90.72,68.832,91.728,74.592,91.728,74.592,90.72"  stroke="none" stroke-width="0"/>
    <polygon fill="black" points="53.856,98.064,53.856,98.208,53.712,98.208,53.712,98.352,53.568,98.352,53.568,98.496,53.424,98.496,53.424,98.64,53.28,98.64,53.28,98.784,53.136,98.784,53.136,98.928,52.992,98.928,52.992,99.072,52.704,99.072,52.704,99.216,52.56,99.216,52.56,99.36,52.272,99.36,52.272,99.504,51.984,99.504,51.984,99.648,51.696,99.648,51.696,99.792,51.12,99.792,51.12,99.936,62.928,99.936,62.928,99.792,62.496,99.792,62.496,99.648,62.208,99.648,62.208,99.504,61.92,99.504,61.92,99.36,61.632,99.36,61.632,99.216,61.488,99.216,61.488,99.072,61.344,99.072,61.344,98.928,61.2,98.928,61.2,98.784,60.912,98.784,60.912,98.64,60.768,98.64,60.768,98.496,60.624,98.496,60.624,98.352,60.48,98.352,60.48,98.064"  stroke="none" stroke-width="0"/>
    <polygon fill="black" points="68.4,98.064,68.4,98.208,68.256,98.208,68.256,98.352,68.112,98.352,68.112,98.496,67.968,98.496,67.968,98.64,67.824,98.64,67.824,98.784,67.68,98.784,67.68,98.928,67.536,98.928,67.536,99.072,67.392,99.072,67.392,99.216,74.592,99.216,74.592,98.064"  stroke="none" stroke-width="0"/>
    <polygon fill="black" points="101.808,98.928,101.808,99.072,101.232,99.072,101.232,99.216,103.536,99.216,103.536,98.928"  stroke="none" stroke-width="0"/>
    <polygon fill="black" points="67.104,99.216,67.104,99.36,103.536,99.36,103.536,99.216"  stroke="none" stroke-width="0"/>
    <polygon fill="black" points="67.104,99.216,67.104,99.36,103.536,99.36,103.536,99.216"  stroke="none" stroke-width="0"/>
    <polygon fill="black" points="67.104,99.216,67.104,99.36,103.536,99.36,103.536,99.216"  stroke="none" stroke-width="0"/>
    <polygon fill="black" points="66.96,99.36,66.96,99.504,66.672,99.504,66.672,99.648,66.384,99.648,66.384,99.792,65.952,99.792,65.952,99.936,65.232,99.936,65.232,100.08,103.392,100.08,103.392,99.792,103.536,99.792,103.536,99.36"  stroke="none" stroke-width="0"/>
    <polygon fill="black" points="31.536,99.936,31.536,100.08,63.648,100.08,63.648,99.936"  stroke="none" stroke-width="0"/>
    <polygon fill="black" points="31.536,99.936,31.536,100.08,63.648,100.08,63.648,99.936"  stroke="none" stroke-width="0"/>
    <polygon fill="black" points="31.536,100.08,31.536,100.224,103.248,100.224,103.248,100.08"  stroke="none" stroke-width="0"/>
    <polygon fill="black" points="31.536,100.08,31.536,100.224,103.248,100.224,103.248,100.08"  stroke="none" stroke-width="0"/>
    <polygon fill="black" points="31.536,100.224,31.536,109.008,31.68,109.008,31.68,109.152,31.824,109.152,31.824,109.296,31.968,109.296,31.968,109.44,32.112,109.44,32.112,109.584,32.256,109.584,32.256,109.728,32.4,109.728,32.4,109.872,32.544,109.872,32.544,110.16,32.688,110.16,32.688,110.304,32.832,110.304,32.832,110.592,32.976,110.592,32.976,110.88,33.12,110.88,33.12,111.168,33.264,111.168,33.264,111.6,33.408,111.6,33.408,114.192,33.264,114.192,33.264,114.624,33.12,114.624,33.12,114.912,32.976,114.912,32.976,115.2,32.832,115.2,32.832,116.784,34.992,116.784,34.992,116.928,38.592,116.928,38.592,115.488,38.448,115.488,38.448,115.344,38.304,115.344,38.304,115.056,38.16,115.056,38.16,114.768,38.016,114.768,38.016,114.336,37.872,114.336,37.872,111.456,38.016,111.456,38.016,111.168,38.16,111.168,38.16,110.736,38.304,110.736,38.304,110.448,38.448,110.448,38.448,110.304,38.592,110.304,38.592,110.016,38.736,110.016,38.736,109.872,38.88,109.872,38.88,109.728,39.024,109.728,39.024,109.584,39.168,109.584,39.168,109.44,39.312,109.44,39.312,109.296,39.456,109.296,39.456,109.152,39.6,109.152,39.6,104.832,39.744,104.832,39.744,104.256,39.888,104.256,39.888,103.968,40.032,103.968,40.032,103.68,40.176,103.68,40.176,103.536,40.32,103.536,40.32,103.392,40.464,103.392,40.464,103.248,40.608,103.248,40.608,103.104,40.752,103.104,40.752,102.96,41.04,102.96,41.04,102.816,41.328,102.816,41.328,102.672,41.76,102.672,41.76,102.528,101.952,102.528,101.952,102.384,102.096,102.384,102.096,102.096,102.24,102.096,102.24,101.808,102.384,101.808,102.384,101.664,102.528,101.664,102.528,101.376,102.672,101.376,102.672,101.088,102.816,101.088,102.816,100.8,102.96,100.8,102.96,100.512,103.104,100.512,103.104,100.368,103.248,100.368,103.248,100.224"  stroke="none" stroke-width="0"/>
    <g  id="connector0pad">
     <circle fill="black" cx="30.5673"  cy="5.046" stroke="none" r="2.7" stroke-width="0"/>
    </g>
   </g>
  </g>
 </g>
 <g partID="120930">
  <g transform="translate(2.88,111.456)">
   <g  id="groundplane">
    <polygon fill="black" points="0,0,0,3.744,0.144,3.744,0.144,5.184,0.288,5.184,0.288,6.336,0.432,6.336,0.432,7.056,0.576,7.056,0.576,7.776,0.72,7.776,0.72,8.352,0.864,8.352,0.864,8.928,1.008,8.928,1.008,9.36,12.96,9.36,12.96,9.216,12.384,9.216,12.384,9.072,12.096,9.072,12.096,8.928,11.808,8.928,11.808,8.784,11.52,8.784,11.52,8.64,11.232,8.64,11.232,8.496,11.088,8.496,11.088,8.352,10.944,8.352,10.944,8.208,10.656,8.208,10.656,8.064,10.512,8.064,10.512,7.92,10.368,7.92,10.368,7.776,10.224,7.776,10.224,7.488,10.08,7.488,10.08,7.344,9.936,7.344,9.936,7.2,9.792,7.2,9.792,6.912,9.648,6.912,9.648,6.768,9.504,6.768,9.504,6.48,9.36,6.48,9.36,6.192,9.216,6.192,9.216,5.76,9.072,5.76,9.072,2.88,9.216,2.88,9.216,2.592,9.36,2.592,9.36,2.16,9.504,2.16,9.504,1.872,9.648,1.872,9.648,1.728,9.792,1.728,9.792,0.288,2.016,0.288,2.016,0.144,1.584,0.144,1.584,0"  stroke="none" stroke-width="0"/>
    <polygon fill="black" points="16.704,8.496,16.704,8.64,16.56,8.64,16.56,8.784,16.272,8.784,16.272,8.928,15.984,8.928,15.984,9.072,15.696,9.072,15.696,9.216,15.12,9.216,15.12,9.36,20.16,9.36,20.16,9.216,19.584,9.216,19.584,9.072,19.296,9.072,19.296,8.928,19.008,8.928,19.008,8.784,18.72,8.784,18.72,8.64,18.432,8.64,18.432,8.496"  stroke="none" stroke-width="0"/>
    <polygon fill="black" points="23.76,8.64,23.76,8.784,23.472,8.784,23.472,8.928,23.184,8.928,23.184,9.072,22.896,9.072,22.896,9.216,22.32,9.216,22.32,9.36,25.2,9.36,25.2,8.64"  stroke="none" stroke-width="0"/>
    <polygon fill="black" points="1.008,9.36,1.008,9.504,25.2,9.504,25.2,9.36"  stroke="none" stroke-width="0"/>
    <polygon fill="black" points="1.008,9.36,1.008,9.504,25.2,9.504,25.2,9.36"  stroke="none" stroke-width="0"/>
    <polygon fill="black" points="1.008,9.36,1.008,9.504,25.2,9.504,25.2,9.36"  stroke="none" stroke-width="0"/>
    <polygon fill="black" points="1.152,9.504,1.152,10.08,1.296,10.08,1.296,10.512,19.296,10.512,19.296,10.656,19.872,10.656,19.872,10.8,20.304,10.8,20.304,10.944,20.592,10.944,20.592,11.088,21.024,11.088,21.024,11.232,21.312,11.232,21.312,11.376,21.456,11.376,21.456,11.52,21.744,11.52,21.744,11.664,22.032,11.664,22.032,11.808,22.176,11.808,22.176,11.952,22.464,11.952,22.464,12.096,22.608,12.096,22.608,12.24,22.752,12.24,22.752,12.384,22.896,12.384,22.896,12.528,23.04,12.528,23.04,12.672,23.328,12.672,23.328,12.816,23.472,12.816,23.472,12.96,23.616,12.96,23.616,13.104,23.76,13.104,23.76,13.392,23.904,13.392,23.904,13.536,24.048,13.536,24.048,13.68,24.192,13.68,24.192,13.824,24.336,13.824,24.336,14.112,24.48,14.112,24.48,14.256,24.624,14.256,24.624,14.544,24.768,14.544,24.768,14.688,24.912,14.688,24.912,14.976,25.056,14.976,25.056,15.264,25.2,15.264,25.2,15.552,25.344,15.552,25.344,15.84,25.488,15.84,25.488,16.272,25.632,16.272,25.632,16.848,25.776,16.848,25.776,17.712,25.92,17.712,25.92,19.872,25.776,19.872,25.776,20.736,25.632,20.736,25.632,21.168,25.488,21.168,25.488,21.6,25.344,21.6,25.344,21.888,25.2,21.888,25.2,22.176,25.056,22.176,25.056,22.464,24.912,22.464,24.912,22.752,24.768,22.752,24.768,23.04,24.624,23.04,24.624,23.184,24.48,23.184,24.48,23.472,24.336,23.472,24.336,23.616,24.192,23.616,24.192,23.76,24.048,23.76,24.048,23.904,23.904,23.904,23.904,24.192,23.76,24.192,23.76,24.336,23.616,24.336,23.616,24.48,23.472,24.48,23.472,24.624,23.328,24.624,23.328,24.768,23.184,24.768,23.184,24.912,23.04,24.912,23.04,25.056,22.752,25.056,22.752,25.2,22.608,25.2,22.608,25.344,22.464,25.344,22.464,25.488,22.32,25.488,22.32,25.632,22.032,25.632,22.032,25.776,21.888,25.776,21.888,27.216,23.184,27.216,23.184,27.36,112.752,27.36,112.752,27.216,114.048,27.216,114.048,25.632,113.76,25.632,113.76,25.488,113.616,25.488,113.616,25.344,113.472,25.344,113.472,25.2,113.184,25.2,113.184,25.056,113.04,25.056,113.04,24.912,112.896,24.912,112.896,24.768,112.752,24.768,112.752,24.624,112.608,24.624,112.608,24.48,112.464,24.48,112.464,24.336,112.32,24.336,112.32,24.192,112.176,24.192,112.176,24.048,112.032,24.048,112.032,23.904,111.888,23.904,111.888,23.616,111.744,23.616,111.744,23.472,111.6,23.472,111.6,23.328,111.456,23.328,111.456,23.04,111.312,23.04,111.312,22.752,111.168,22.752,111.168,22.608,111.024,22.608,111.024,22.32,110.88,22.32,110.88,22.032,110.736,22.032,110.736,21.6,110.592,21.6,110.592,21.312,110.448,21.312,110.448,20.736,110.304,20.736,110.304,20.16,110.16,20.16,110.16,17.424,110.304,17.424,110.304,16.704,110.448,16.704,110.448,16.128,110.592,16.128,110.592,14.688,33.696,14.688,33.696,14.544,27.072,14.544,27.072,14.4,26.64,14.4,26.64,14.256,26.352,14.256,26.352,14.112,26.208,14.112,26.208,13.968,25.92,13.968,25.92,13.824,25.776,13.824,25.776,13.536,25.632,13.536,25.632,13.392,25.488,13.392,25.488,13.104,25.344,13.104,25.344,12.816,25.2,12.816,25.2,12.24,25.056,12.24,25.056,9.648,25.2,9.648,25.2,9.504"  stroke="none" stroke-width="0"/>
    <polygon fill="black" points="1.44,10.512,1.44,10.944,1.584,10.944,1.584,11.376,1.728,11.376,1.728,11.664,1.872,11.664,1.872,12.096,2.016,12.096,2.016,12.384,2.16,12.384,2.16,12.816,2.304,12.816,2.304,13.104,2.448,13.104,2.448,13.392,2.592,13.392,2.592,13.824,2.736,13.824,2.736,14.112,2.88,14.112,2.88,14.4,3.024,14.4,3.024,14.688,3.168,14.688,3.168,14.976,3.312,14.976,3.312,15.264,3.456,15.264,3.456,15.408,3.6,15.408,3.6,15.696,3.744,15.696,3.744,15.984,3.888,15.984,3.888,16.272,4.032,16.272,4.032,16.416,4.176,16.416,4.176,16.704,4.32,16.704,4.32,16.992,4.464,16.992,4.464,17.136,4.608,17.136,4.608,17.424,4.752,17.424,4.752,17.568,4.896,17.568,4.896,17.856,5.04,17.856,5.04,18,5.184,18,5.184,18.144,5.328,18.144,5.328,18.432,5.472,18.432,5.472,18.576,5.616,18.576,5.616,18.864,5.76,18.864,5.76,19.008,5.904,19.008,5.904,19.152,6.048,19.152,6.048,19.296,6.192,19.296,6.192,19.584,6.336,19.584,6.336,19.728,6.48,19.728,6.48,19.872,6.624,19.872,6.624,20.016,6.768,20.016,6.768,20.304,6.912,20.304,6.912,20.448,7.056,20.448,7.056,20.592,7.344,20.592,7.344,20.736,7.488,20.736,7.488,20.88,7.632,20.88,7.632,21.024,7.776,21.024,7.776,21.168,7.92,21.168,7.92,21.312,8.208,21.312,8.208,21.456,9.648,21.456,9.648,20.736,9.504,20.736,9.504,20.16,9.36,20.16,9.36,17.424,9.504,17.424,9.504,16.704,9.648,16.704,9.648,16.128,9.792,16.128,9.792,15.84,9.936,15.84,9.936,15.408,10.08,15.408,10.08,15.12,10.224,15.12,10.224,14.832,10.368,14.832,10.368,14.688,10.512,14.688,10.512,14.4,10.656,14.4,10.656,14.256,10.8,14.256,10.8,13.968,10.944,13.968,10.944,13.824,11.088,13.824,11.088,13.68,11.232,13.68,11.232,13.392,11.376,13.392,11.376,13.248,11.52,13.248,11.52,13.104,11.664,13.104,11.664,12.96,11.808,12.96,11.808,12.816,11.952,12.816,11.952,12.672,12.096,12.672,12.096,12.528,12.24,12.528,12.24,12.384,12.528,12.384,12.528,12.24,12.672,12.24,12.672,12.096,12.816,12.096,12.816,11.952,13.104,11.952,13.104,11.808,13.248,11.808,13.248,11.664,13.536,11.664,13.536,11.52,13.68,11.52,13.68,11.376,13.968,11.376,13.968,11.232,14.256,11.232,14.256,11.088,14.544,11.088,14.544,10.944,14.976,10.944,14.976,10.8,15.408,10.8,15.408,10.656,15.984,10.656,15.984,10.512"  stroke="none" stroke-width="0"/>
    <g  id="connector0pad">
     <circle fill="black" cx="4.6314"  cy="4.269" stroke="none" r="2.7" stroke-width="0"/>
    </g>
   </g>
  </g>
 </g>
 <g partID="120940">
  <g transform="translate(57.888,111.744)">
   <g  id="groundplane">
    <polygon fill="black" points="0,0,0,8.064,23.184,8.064,23.184,6.624,23.04,6.624,23.04,6.48,22.896,6.48,22.896,6.192,22.752,6.192,22.752,5.904,22.608,5.904,22.608,5.472,22.464,5.472,22.464,2.736,22.608,2.736,22.608,2.304,22.752,2.304,22.752,1.872,22.896,1.872,22.896,1.584,23.04,1.584,23.04,1.44,23.184,1.44,23.184,0"  stroke="none" stroke-width="0"/>
    <g  id="connector0pad">
     <circle fill="black" cx="5.209"  cy="3.837" stroke="none" r="2.7" stroke-width="0"/>
    </g>
   </g>
  </g>
 </g>
 <g partID="120950">
  <g transform="translate(89.568,111.744)">
   <g  id="groundplane">
    <polygon fill="black" points="0,0,0,1.44,0.144,1.44,0.144,1.728,0.288,1.728,0.288,2.016,0.432,2.016,0.432,2.304,0.576,2.304,0.576,2.736,0.72,2.736,0.72,5.328,0.576,5.328,0.576,5.76,0.432,5.76,0.432,6.048,0.288,6.048,0.288,6.336,0.144,6.336,0.144,6.624,0,6.624,0,8.064,12.384,8.064,12.384,0"  stroke="none" stroke-width="0"/>
    <g  id="connector0pad">
     <circle fill="black" cx="4.5162"  cy="3.837" stroke="none" r="2.7" stroke-width="0"/>
    </g>
   </g>
  </g>
 </g>
 <g partID="12560">
  <g transform="translate(158.888,21.976)">
   <g transform="matrix(0,1,-1,0,0,0)">
    <g  id="copper0">
     <circle fill="none" cx="18.216"  cy="43.2" stroke="black" id="connector0pin" r="1.728" stroke-width="1.44"/>
     <circle fill="none" cx="25.272"  cy="43.2" stroke="black" id="connector1pin" r="1.728" stroke-width="1.44"/>
     <circle fill="none" cx="25.272"  cy="37.584" stroke="black" id="connector2pin" r="1.728" stroke-width="1.44"/>
     <circle fill="none" cx="18.216"  cy="37.584" stroke="black" id="connector3pin" r="1.728" stroke-width="1.44"/>
     <circle fill="none" cx="4.68"  cy="29.88" stroke="black" id="connector4pin" r="3.816" stroke-width="1.44"/>
     <circle fill="none" cx="38.808"  cy="29.88" stroke="black" id="connector5pin" r="3.816" stroke-width="1.44"/>
    </g>
   </g>
  </g>
 </g>
 <g partID="12610">
  <g transform="translate(26.984,71.8716)">
   <g  id="copper0">
    <rect width="3.96" x="2.34" y="2.34" fill="none"  height="3.96" stroke="black" id="square" stroke-width="1.44"/>
    <circle fill="none" cx="4.32"  cy="4.32" stroke="black" id="connector0pin" r="1.98" stroke-width="1.44"/>
    <circle fill="none" cx="25.92"  cy="4.32" stroke="black" id="connector7pin" r="1.98" stroke-width="1.44"/>
    <circle fill="none" cx="4.32"  cy="11.52" stroke="black" id="connector1pin" r="1.98" stroke-width="1.44"/>
    <circle fill="none" cx="25.92"  cy="11.52" stroke="black" id="connector6pin" r="1.98" stroke-width="1.44"/>
    <circle fill="none" cx="4.32"  cy="18.72" stroke="black" id="connector2pin" r="1.98" stroke-width="1.44"/>
    <circle fill="none" cx="25.92"  cy="18.72" stroke="black" id="connector5pin" r="1.98" stroke-width="1.44"/>
    <circle fill="none" cx="4.32"  cy="25.92" stroke="black" id="connector3pin" r="1.98" stroke-width="1.44"/>
    <circle fill="none" cx="25.92"  cy="25.92" stroke="black" id="connector4pin" r="1.98" stroke-width="1.44"/>
   </g>
  </g>
 </g>
 <g partID="12960">
  <g transform="translate(91.928,50.9916)">
   <g transform="matrix(-1,2.77556e-16,-2.77556e-16,-1,0,0)">
    <g  id="copper0">
     <rect width="4.464" x="0.72" y="1.368" fill="none"  height="4.464" stroke="black" stroke-width="1.44"/>
     <circle fill="none" cx="3.024"  cy="3.6" stroke="black" id="connector0pin" r="2.232" stroke-width="1.44"/>
     <circle fill="none" cx="24.48"  cy="3.6" stroke="black" id="connector1pin" r="2.232" stroke-width="1.44"/>
    </g>
   </g>
  </g>
 </g>
 <g partID="12990">
  <g transform="translate(64.28,58.1916)">
   <g  id="copper0">
    <rect width="4.464" x="0.72" y="1.368" fill="none"  height="4.464" stroke="black" stroke-width="1.44"/>
    <circle fill="none" cx="3.024"  cy="3.6" stroke="black" id="connector0pin" r="2.232" stroke-width="1.44"/>
    <circle fill="none" cx="24.48"  cy="3.6" stroke="black" id="connector1pin" r="2.232" stroke-width="1.44"/>
   </g>
  </g>
 </g>
 <g partID="48750">
  <g transform="translate(109.604,118.492)">
   <g transform="matrix(-1,2.22045e-16,-2.22045e-16,-1,0,0)">
    <g  id="copper0">
     <g  id="copper1">
      <rect width="3.96" x="0.72" y="0.72" fill="none"  height="3.96" stroke="black" stroke-width="1.44"/>
      <circle fill="none" cx="2.7"  cy="2.7" stroke="black" r="1.98" id="connector0pin" stroke-width="1.44"/>
      <circle fill="none" cx="24.3"  cy="2.7" stroke="black" r="1.98" id="connector1pin" stroke-width="1.44"/>
     </g>
    </g>
   </g>
  </g>
 </g>
 <g partID="14610">
  <g transform="translate(91.604,35.692)">
   <g transform="matrix(-1,4.44089e-16,-4.44089e-16,-1,0,0)">
    <g  id="copper0">
     <g  id="copper1">
      <rect width="3.96" x="0.72" y="0.72" fill="none"  height="3.96" stroke="black" stroke-width="1.44"/>
      <circle fill="none" cx="2.7"  cy="2.7" stroke="black" r="1.98" id="connector0pin" stroke-width="1.44"/>
      <circle fill="none" cx="24.3"  cy="2.7" stroke="black" r="1.98" id="connector1pin" stroke-width="1.44"/>
     </g>
    </g>
   </g>
  </g>
 </g>
 <g partID="16440">
  <g transform="translate(79.76,73.6716)">
   <g transform="matrix(1,-1.11022e-16,1.11022e-16,1,0,0)">
    <g  id="copper0">
     <rect width="3.024" x="0.432" y="1.008" fill="none"  height="3.024" stroke="black" stroke-width="0.864"/>
     <circle fill="none" cx="1.944"  cy="2.52" stroke="black" r="1.512" id="connector0pad" stroke-width="0.864"/>
     <circle fill="none" cx="23.544"  cy="2.52" stroke="black" r="1.512" id="connector1pad" stroke-width="0.864"/>
    </g>
   </g>
  </g>
 </g>
 <g partID="16470">
  <g transform="translate(79.76,80.8716)">
   <g  id="copper0">
    <rect width="3.024" x="0.432" y="1.008" fill="none"  height="3.024" stroke="black" stroke-width="0.864"/>
    <circle fill="none" cx="1.944"  cy="2.52" stroke="black" r="1.512" id="connector0pad" stroke-width="0.864"/>
    <circle fill="none" cx="23.544"  cy="2.52" stroke="black" r="1.512" id="connector1pad" stroke-width="0.864"/>
   </g>
  </g>
 </g>
 <g partID="16500">
  <g transform="translate(79.76,95.2716)">
   <g  id="copper0">
    <rect width="3.024" x="0.432" y="1.008" fill="none"  height="3.024" stroke="black" stroke-width="0.864"/>
    <circle fill="none" cx="1.944"  cy="2.52" stroke="black" r="1.512" id="connector0pad" stroke-width="0.864"/>
    <circle fill="none" cx="23.544"  cy="2.52" stroke="black" r="1.512" id="connector1pad" stroke-width="0.864"/>
   </g>
  </g>
 </g>
 <g partID="20330">
  <g transform="translate(64.928,13.552)">
   <g  id="copper0">
    <rect width="3.744" x="0.504" y="3.168" fill="none"  height="3.744" stroke="black" stroke-width="1.08"/>
    <circle fill="none" cx="2.376"  cy="5.04" stroke="black" r="1.872" id="connector0pad" stroke-width="1.08"/>
    <circle fill="none" cx="31.176"  cy="5.04" stroke="black" r="1.872" id="connector1pad" stroke-width="1.08"/>
   </g>
  </g>
 </g>
 <g partID="23730">
  <g transform="translate(154.064,107.152)">
   <g transform="matrix(-1,2.77556e-16,-2.77556e-16,-1,0,0)">
    <g  id="copper0">
     <circle fill="none" cx="39.24"  cy="12.96" stroke="black" id="connector0pin" r="4.32" stroke-width="1.44"/>
     <circle fill="none" cx="21.96"  cy="12.96" stroke="black" id="connector1pin" r="4.32" stroke-width="1.44"/>
     <circle fill="none" cx="30.6"  cy="26.64" stroke="black" id="connector2pin" r="4.32" stroke-width="1.44"/>
    </g>
   </g>
  </g>
 </g>
 <g partID="23780">
  <g transform="translate(57.944,110.752)">
   <g transform="matrix(2.22045e-16,1,-1,2.22045e-16,0,0)">
    <g  id="copper0">
     <rect width="3.96" x="3.06" y="3.06" fill="none"  height="3.96" stroke="black" stroke-width="1.44"/>
     <circle fill="none" cx="5.04"  cy="5.04" stroke="black" id="connector0pin" r="1.98" stroke-width="1.44"/>
     <circle fill="none" cx="5.04"  cy="12.24" stroke="black" id="connector1pin" r="1.98" stroke-width="1.44"/>
     <!-- <circle cx='70' cy='270' fill='none' id='connector2pin' r='27.5' stroke='rgb(255, 191, 0)' stroke-width='20'/> -->
     <circle fill="none" cx="5.04"  cy="26.64" stroke="black" id="connector2pin" r="1.98" stroke-width="1.44"/>
     <circle fill="none" cx="5.04"  cy="33.84" stroke="black" id="connector3pin" r="1.98" stroke-width="1.44"/>
     <circle fill="none" cx="5.04"  cy="41.04" stroke="black" id="connector4pin" r="1.98" stroke-width="1.44"/>
    </g>
   </g>
  </g>
 </g>
 <g partID="65120">
  <g transform="translate(57.944,20.752)">
   <g transform="matrix(2.22045e-16,1,-1,2.22045e-16,0,0)">
    <g  id="copper0">
     <rect width="4.176" x="2.952" y="2.952" fill="none"  height="4.176" stroke="black" id="square" stroke-width="1.44"/>
     <circle fill="none" cx="5.04"  cy="5.04" stroke="black" id="connector0pin" r="2.088" stroke-width="1.44"/>
     <circle fill="none" cx="5.04"  cy="12.24" stroke="black" id="connector1pin" r="2.088" stroke-width="1.44"/>
    </g>
   </g>
  </g>
 </g>
 <g partID="93600">
  <g transform="translate(62.264,71.1516)">
   <g  id="copper0">
    <circle fill="none" cx="5.04"  cy="5.04" stroke="black" id="connector0pin" r="2.088" stroke-width="1.44"/>
    <circle fill="none" cx="5.04"  cy="12.24" stroke="black" id="connector1pin" r="2.088" stroke-width="1.44"/>
    <circle fill="none" cx="5.04"  cy="19.44" stroke="black" id="connector2pin" r="2.088" stroke-width="1.44"/>
    <circle fill="none" cx="5.04"  cy="26.64" stroke="black" id="connector3pin" r="2.088" stroke-width="1.44"/>
   </g>
  </g>
 </g>
 <g partID="89560">
  <g transform="translate(11.864,71.1516)">
   <g  id="copper0">
    <circle fill="none" cx="5.04"  cy="5.04" stroke="black" id="connector0pin" r="2.088" stroke-width="1.44"/>
    <circle fill="none" cx="5.04"  cy="12.24" stroke="black" id="connector1pin" r="2.088" stroke-width="1.44"/>
    <circle fill="none" cx="5.04"  cy="19.44" stroke="black" id="connector2pin" r="2.088" stroke-width="1.44"/>
    <circle fill="none" cx="5.04"  cy="26.64" stroke="black" id="connector3pin" r="2.088" stroke-width="1.44"/>
   </g>
  </g>
 </g>
 <g partID="97730">
  <g transform="translate(12.9512,3.8392)">
   <g  id="copper0">
    <circle fill="none" cx="7.55273"  cy="7.55273" stroke="black" r="4.53543" id="nonconn0" stroke-width="2.83465"/>
   </g>
  </g>
 </g>
 <g partID="97710">
  <g transform="translate(12.9512,122.639)">
   <g  id="copper0">
    <circle fill="none" cx="7.55273"  cy="7.55273" stroke="black" r="4.53543" id="nonconn0" stroke-width="2.83465"/>
   </g>
  </g>
 </g>
 <g partID="97690">
  <g transform="translate(113.751,122.639)">
   <g  id="copper0">
    <circle fill="none" cx="7.55273"  cy="7.55273" stroke="black" r="4.53543" id="nonconn0" stroke-width="2.83465"/>
   </g>
  </g>
 </g>
 <g partID="97660">
  <g transform="translate(113.751,3.8392)">
   <g  id="copper0">
    <circle fill="none" cx="7.55273"  cy="7.55273" stroke="black" r="4.53543" id="nonconn0" stroke-width="2.83465"/>
   </g>
  </g>
 </g>
 <g partID="115520">
  <line stroke="black" stroke-linecap="round" y1="108.592" x1="6.104" y2="108.592" stroke-width="1.728" x2="16.904"/>
 </g>
 <g partID="115430">
  <line stroke="black" stroke-linecap="round" y1="83.3924" x1="6.104" y2="108.592" stroke-width="1.728" x2="6.104"/>
 </g>
 <g partID="114100">
  <line stroke="black" stroke-linecap="round" y1="108.592" x1="16.904" y2="113.732" stroke-width="1.728" x2="16.904"/>
 </g>
 <g partID="96660">
  <line stroke="black" stroke-linecap="round" y1="83.3924" x1="14.736" y2="83.3924" stroke-width="1.728" x2="6.104"/>
 </g>
 <g partID="115340">
  <line stroke="black" stroke-linecap="round" y1="104.992" x1="9.704" y2="104.992" stroke-width="1.728" x2="24.104"/>
 </g>
 <g partID="115250">
  <line stroke="black" stroke-linecap="round" y1="104.992" x1="24.104" y2="113.732" stroke-width="1.728" x2="24.104"/>
 </g>
 <g partID="113690">
  <line stroke="black" stroke-linecap="round" y1="90.5924" x1="9.704" y2="104.992" stroke-width="1.728" x2="9.704"/>
 </g>
 <g partID="96570">
  <line stroke="black" stroke-linecap="round" y1="90.5924" x1="14.736" y2="90.5924" stroke-width="1.728" x2="9.704"/>
 </g>
 <g partID="96090">
  <line stroke="black" stroke-linecap="round" y1="97.7924" x1="19.072" y2="97.7924" stroke-width="1.728" x2="29.244"/>
 </g>
 <g partID="95980">
  <line stroke="black" stroke-linecap="round" y1="90.5924" x1="19.072" y2="90.5924" stroke-width="1.728" x2="29.244"/>
 </g>
 <g partID="94810">
  <line stroke="black" stroke-linecap="round" y1="83.3924" x1="19.072" y2="83.3924" stroke-width="1.728" x2="29.244"/>
 </g>
 <g partID="94740">
  <line stroke="black" stroke-linecap="round" y1="76.1924" x1="19.072" y2="76.1924" stroke-width="1.728" x2="29.244"/>
 </g>
 <g partID="94650">
  <line stroke="black" stroke-linecap="round" y1="97.7924" x1="79.824" y2="97.7924" stroke-width="1.728" x2="69.472"/>
 </g>
 <g partID="94230">
  <line stroke="black" stroke-linecap="round" y1="83.3924" x1="79.824" y2="83.3924" stroke-width="1.728" x2="70.904"/>
 </g>
 <g partID="94320">
  <line stroke="black" stroke-linecap="round" y1="83.3924" x1="70.904" y2="83.3924" stroke-width="1.728" x2="69.472"/>
 </g>
 <g partID="93990">
  <line stroke="black" stroke-linecap="round" y1="97.7924" x1="65.136" y2="97.7924" stroke-width="1.728" x2="54.964"/>
 </g>
 <g partID="93880">
  <line stroke="black" stroke-linecap="round" y1="90.5924" x1="65.136" y2="90.5924" stroke-width="1.728" x2="54.964"/>
 </g>
 <g partID="93770">
  <line stroke="black" stroke-linecap="round" y1="83.3924" x1="65.136" y2="83.3924" stroke-width="1.728" x2="54.964"/>
 </g>
 <g partID="93620">
  <line stroke="black" stroke-linecap="round" y1="76.1924" x1="65.136" y2="76.1924" stroke-width="1.728" x2="54.964"/>
 </g>
 <g partID="82500">
  <line stroke="black" stroke-linecap="round" y1="49.7035" x1="88.8809" y2="59.4797" stroke-width="1.728" x2="88.7831"/>
 </g>
 <g partID="107120">
  <line stroke="black" stroke-linecap="round" y1="40.1916" x1="67.304" y2="45.0801" stroke-width="1.728" x2="67.4018"/>
 </g>
 <g partID="84640">
  <line stroke="black" stroke-linecap="round" y1="35.052" x1="67.304" y2="40.192" stroke-width="1.728" x2="67.304"/>
 </g>
 <g partID="81870">
  <line stroke="black" stroke-linecap="round" y1="74.3124" x1="103.299" y2="47.2799" stroke-width="1.728" x2="103.22"/>
 </g>
 <g partID="82110">
  <line stroke="black" stroke-linecap="round" y1="47.2796" x1="103.22" y2="47.3921" stroke-width="1.728" x2="110.504"/>
 </g>
 <g partID="82000">
  <line stroke="black" stroke-linecap="round" y1="47.3916" x1="110.504" y2="47.2978" stroke-width="1.728" x2="113.881"/>
 </g>
 <g partID="84140">
  <line stroke="black" stroke-linecap="round" y1="40.1916" x1="128.504" y2="30.5489" stroke-width="1.728" x2="128.863"/>
 </g>
 <g partID="42330">
  <line stroke="black" stroke-linecap="round" y1="56.8888" x1="128.913" y2="40.1916" stroke-width="1.728" x2="128.504"/>
 </g>
 <g partID="42580">
  <line stroke="black" stroke-linecap="round" y1="40.1916" x1="128.504" y2="40.1916" stroke-width="1.728" x2="123.112"/>
 </g>
 <g partID="82250">
  <line stroke="black" stroke-linecap="round" y1="97.8868" x1="107.063" y2="54.646" stroke-width="1.728" x2="107.063"/>
 </g>
 <g partID="81820">
  <line stroke="black" stroke-linecap="round" y1="54.646" x1="107.063" y2="54.646" stroke-width="1.728" x2="117.633"/>
 </g>
 <g partID="81720">
  <line stroke="black" stroke-linecap="round" y1="97.84" x1="105.183" y2="97.8876" stroke-width="1.728" x2="107.064"/>
 </g>
 <g partID="81770">
  <line stroke="black" stroke-linecap="round" y1="54.646" x1="117.634" y2="48.8672" stroke-width="1.728" x2="120.501"/>
 </g>
 <g partID="81630">
  <line stroke="black" stroke-linecap="round" y1="78.0724" x1="103.304" y2="81.5124" stroke-width="1.728" x2="103.304"/>
 </g>
 <g partID="73370">
  <line stroke="black" stroke-linecap="round" y1="27.96" x1="45.704" y2="90.592" stroke-width="1.728" x2="45.704"/>
 </g>
 <g partID="73460">
  <line stroke="black" stroke-linecap="round" y1="90.5924" x1="45.704" y2="90.5924" stroke-width="1.728" x2="50.844"/>
 </g>
 <g partID="60530">
  <line stroke="black" stroke-linecap="round" y1="76.2757" x1="124.654" y2="64.5343" stroke-width="1.728" x2="127.954"/>
 </g>
 <g partID="58290">
  <line stroke="black" stroke-linecap="round" y1="122.992" x1="85.304" y2="117.852" stroke-width="1.728" x2="85.304"/>
 </g>
 <g partID="73010">
  <line stroke="black" stroke-linecap="round" y1="122.992" x1="52.904" y2="122.992" stroke-width="1.728" x2="85.304"/>
 </g>
 <g partID="47140">
  <line stroke="black" stroke-linecap="round" y1="122.992" x1="85.304" y2="122.992" stroke-width="1.728" x2="114.104"/>
 </g>
 <g partID="46910">
  <line stroke="black" stroke-linecap="round" y1="117.852" x1="52.904" y2="122.992" stroke-width="1.728" x2="52.904"/>
 </g>
 <g partID="118350">
  <line stroke="black" stroke-linecap="round" y1="108.592" x1="114.104" y2="108.592" stroke-width="1.728" x2="132.104"/>
 </g>
 <g partID="118120">
  <line stroke="black" stroke-linecap="round" y1="108.592" x1="132.104" y2="98.5924" stroke-width="1.728" x2="132.104"/>
 </g>
 <g partID="85440">
  <line stroke="black" stroke-linecap="round" y1="122.992" x1="114.104" y2="108.592" stroke-width="1.728" x2="114.104"/>
 </g>
 <g partID="57940">
  <line stroke="black" stroke-linecap="round" y1="108.592" x1="106.904" y2="113.732" stroke-width="1.728" x2="106.904"/>
 </g>
 <g partID="112940">
  <line stroke="black" stroke-linecap="round" y1="108.592" x1="45.704" y2="113.732" stroke-width="1.728" x2="45.704"/>
 </g>
 <g partID="40430">
  <line stroke="black" stroke-linecap="round" y1="108.592" x1="106.904" y2="108.592" stroke-width="1.728" x2="45.704"/>
 </g>
 <g partID="40380">
  <line stroke="black" stroke-linecap="round" y1="98.0477" x1="112.704" y2="108.592" stroke-width="1.728" x2="106.904"/>
 </g>
 <g partID="41040">
  <line stroke="black" stroke-linecap="round" y1="84.2318" x1="125.814" y2="90.4714" stroke-width="1.728" x2="129.754"/>
 </g>
 <g partID="107250">
  <line stroke="black" stroke-linecap="round" y1="40.1916" x1="67.304" y2="40.1916" stroke-width="1.728" x2="113.88"/>
 </g>
 <g partID="109080">
  <line stroke="black" stroke-linecap="round" y1="32.992" x1="99.704" y2="32.992" stroke-width="1.728" x2="90.964"/>
 </g>
 <g partID="107920">
  <line stroke="black" stroke-linecap="round" y1="32.8658" x1="117.634" y2="32.992" stroke-width="1.728" x2="99.704"/>
 </g>
 <g partID="107680">
  <line stroke="black" stroke-linecap="round" y1="38.5751" x1="120.494" y2="32.8655" stroke-width="1.728" x2="117.634"/>
 </g>
 <g partID="116040">
  <line stroke="black" stroke-linecap="round" y1="18.592" x1="99.704" y2="18.592" stroke-width="1.728" x2="98.236"/>
 </g>
 <g partID="109330">
  <line stroke="black" stroke-linecap="round" y1="32.992" x1="99.704" y2="18.592" stroke-width="1.728" x2="99.704"/>
 </g>
 <g partID="111860">
  <line stroke="black" stroke-linecap="round" y1="18.592" x1="45.704" y2="23.624" stroke-width="1.728" x2="45.704"/>
 </g>
 <g partID="110080">
  <line stroke="black" stroke-linecap="round" y1="18.592" x1="65.172" y2="18.592" stroke-width="1.728" x2="45.704"/>
 </g>
 <g partID="111020">
  <line stroke="black" stroke-linecap="round" y1="74.0244" x1="67.304" y2="64.1044" stroke-width="1.728" x2="67.304"/>
 </g>
 <g partID="111190">
  <line stroke="black" stroke-linecap="round" y1="76.1924" x1="69.472" y2="76.1924" stroke-width="1.728" x2="79.824"/>
 </g>
 <g partID="116400">
  <line stroke="black" stroke-linecap="round" y1="61.7916" x1="52.904" y2="27.9596" stroke-width="1.728" x2="52.904"/>
 </g>
 <g partID="111620">
  <line stroke="black" stroke-linecap="round" y1="61.7916" x1="64.992" y2="61.7916" stroke-width="1.728" x2="52.904"/>
 </g>
 <g partID="113460">
  <line stroke="black" stroke-linecap="round" y1="122.872" x1="31.152" y2="117.852" stroke-width="1.728" x2="31.2598"/>
 </g>
 <g partID="113230">
  <line stroke="black" stroke-linecap="round" y1="122.992" x1="52.904" y2="122.871" stroke-width="1.728" x2="31.1519"/>
 </g>
 <g partID="114900">
  <line stroke="black" stroke-linecap="round" y1="99.8524" x1="31.304" y2="113.732" stroke-width="1.728" x2="31.304"/>
 </g>
</svg>
